<svg fill="#EC0AAC" xmlns="http://www.w3.org/2000/svg" xmlns:xlink="http://www.w3.org/1999/xlink" version="1.1" x="0px" y="0px" viewBox="0 0 100 100" enable-background="new 0 0 100 100" xml:space="preserve"><g><path fill="none" d="M31.726,57.188c0,0-5.68-17.104-6.683-18.849c-1.005-1.735-3.232-2.332-4.968-1.327   c-1.742,1.002-2.335,3.229-1.33,4.964C19.748,43.717,31.726,57.188,31.726,57.188z"></path><path fill="none" d="M36,37.374c0-2.009-1.63-3.639-3.641-3.639c-2.004,0-3.635,1.63-3.635,3.639   c0,2.003,3.635,19.661,3.635,19.661S36,39.377,36,37.374z"></path><path fill="none" d="M12.4,50.956c1.744,1.005,18.85,6.684,18.85,6.684S17.779,45.663,16.041,44.658   c-1.743-1.002-3.966-0.403-4.974,1.331C10.07,47.731,10.664,49.954,12.4,50.956z"></path><path fill="none" d="M12.374,65.588c-1.744,1.006-2.334,3.229-1.333,4.97c1.005,1.736,3.233,2.336,4.968,1.328   c1.736-1.005,15.212-12.981,15.212-12.981S14.111,64.583,12.374,65.588z"></path><path fill="none" d="M31.066,58.273c0,0-17.654-3.639-19.664-3.639c-2.004,0-3.638,1.626-3.638,3.639   c0,2.002,1.634,3.632,3.638,3.634C13.412,61.905,31.066,58.273,31.066,58.273z"></path><path fill="none" d="M45.974,42.009c0.999-1.739,0.404-3.963-1.333-4.969c-1.741-1.005-3.962-0.407-4.972,1.333   c-1.001,1.739-6.684,18.848-6.684,18.848S44.968,43.745,45.974,42.009z"></path><path fill="none" d="M52.29,51.015c1.736-1.01,2.33-3.23,1.332-4.973c-1.005-1.737-3.23-2.329-4.966-1.329   c-1.742,1.002-15.221,12.98-15.221,12.98S50.549,52.014,52.29,51.015z"></path><path fill="none" d="M53.264,54.693c-2.012,0-19.668,3.638-19.668,3.638s17.656,3.635,19.668,3.635   c2.005,0,3.629-1.631,3.634-3.635C56.893,56.32,55.269,54.695,53.264,54.693z"></path><path fill="none" d="M80.841,28.35c0,0,2.772-1.639,4.873-0.722c0,0-2.61-1.603-5.515-0.075c0,0,0.005-1.424-1.167-2.584   c0,0,1.353,3.437-4.067,3.266c0,0,0.667-1.325-0.748-3.035c0,0-0.252,1.667-0.838,3.07c0.762,0.404,1.503,0.84,2.224,1.305   c0.566,0.175,1.023,0.516,1.389,0.956c0.558,0.404,1.105,0.823,1.634,1.264c-0.116-0.965-0.477-1.968-1.331-2.718   c0,0,3.788,0.678,5.505,2.729C82.799,31.806,82.449,29.398,80.841,28.35z"></path><path fill="none" d="M18.686,74.588c-0.999,1.742-0.406,3.969,1.337,4.97c1.737,1.004,3.962,0.408,4.968-1.328   c1.005-1.742,6.682-18.853,6.682-18.853S19.69,72.854,18.686,74.588z"></path><path fill="none" d="M28.665,79.229c0,2.011,1.63,3.636,3.635,3.636c2.009,0,3.635-1.627,3.635-3.636   c0-2.011-3.635-19.664-3.635-19.664S28.665,77.218,28.665,79.229z"></path><path fill="none" d="M32.933,59.408c0,0,5.684,17.112,6.684,18.848c1.005,1.742,3.231,2.338,4.972,1.333   c1.737-1.006,2.331-3.228,1.325-4.968C44.916,72.878,32.933,59.408,32.933,59.408z"></path><path fill="none" d="M52.259,65.641c-1.742-1.006-18.851-6.685-18.851-6.685s13.479,11.978,15.214,12.986   c1.737,1.004,3.963,0.404,4.969-1.334C54.595,68.868,53.994,66.646,52.259,65.641z"></path><path d="M84.841,36.982c5.585-5.518,9.866-6.575,9.866-6.575s-16.014-11.922-22.544-9.044c-2.879,1.27-3.653,3.182-3.468,4.901   c-1.429-0.476-2.9-0.854-4.414-1.115c0-0.001,0.002-0.009,0.001-0.009c-0.1-0.019,3.867-0.83,5.356-2.599   c1.488-1.769,1.396-2.697,1.396-2.697l0.371-3.629l0.373-2.048h-3.443l0.373,2.233c0,0-0.466,2.047-2.048,3.722   c-1.582,1.676-3.813,1.954-4.931,3.071c-0.426,0.426-0.742,1-0.973,1.548c-0.571-0.031-1.145-0.051-1.723-0.051   c-7.634,0-14.604,2.794-19.959,7.431c-2.165-0.56-4.435-0.857-6.775-0.857c-14.914,0-27.007,12.087-27.007,27.009   c0,14.912,12.093,27,27.007,27c4.469,0,8.68-1.09,12.391-3.012c4.282,2.277,9.157,3.57,14.343,3.57   c16.894,0,30.583-13.688,30.583-30.569c0-6.544-2.061-12.604-5.563-17.575C84.315,37.465,84.578,37.242,84.841,36.982z    M53.622,46.042c0.998,1.742,0.404,3.963-1.332,4.973c-1.741,0.999-18.854,6.679-18.854,6.679s13.479-11.979,15.221-12.98   C50.392,43.713,52.617,44.305,53.622,46.042z M39.669,38.373c1.009-1.74,3.23-2.338,4.972-1.333   c1.737,1.006,2.332,3.229,1.333,4.969c-1.005,1.736-12.988,15.212-12.988,15.212S38.668,40.112,39.669,38.373z M32.359,33.735   c2.011,0,3.641,1.63,3.641,3.639c0,2.003-3.641,19.661-3.641,19.661s-3.635-17.658-3.635-19.661   C28.724,35.365,30.355,33.735,32.359,33.735z M20.075,37.012c1.736-1.005,3.962-0.408,4.968,1.327   c1.003,1.744,6.683,18.849,6.683,18.849S19.748,43.717,18.745,41.976C17.74,40.241,18.333,38.014,20.075,37.012z M11.067,45.989   c1.008-1.734,3.231-2.333,4.974-1.331C17.779,45.663,31.25,57.64,31.25,57.64s-17.106-5.679-18.85-6.684   C10.664,49.954,10.07,47.731,11.067,45.989z M7.765,58.273c0-2.013,1.634-3.639,3.638-3.639c2.01,0,19.664,3.639,19.664,3.639   s-17.654,3.632-19.664,3.634C9.398,61.905,7.765,60.275,7.765,58.273z M11.042,70.558c-1.002-1.74-0.411-3.964,1.333-4.97   c1.737-1.005,18.847-6.684,18.847-6.684S17.745,70.881,16.009,71.886C14.274,72.894,12.047,72.294,11.042,70.558z M20.023,79.558   c-1.743-1.001-2.335-3.228-1.337-4.97c1.004-1.733,12.986-15.211,12.986-15.211s-5.676,17.11-6.682,18.853   C23.985,79.966,21.76,80.562,20.023,79.558z M32.3,82.864c-2.005,0-3.635-1.625-3.635-3.636S32.3,59.564,32.3,59.564   s3.635,17.653,3.635,19.664C35.936,81.237,34.309,82.864,32.3,82.864z M44.589,79.589c-1.741,1.005-3.967,0.409-4.972-1.333   c-1-1.735-6.684-18.848-6.684-18.848s11.983,13.47,12.981,15.213C46.92,76.361,46.326,78.583,44.589,79.589z M53.591,70.608   c-1.006,1.738-3.231,2.338-4.969,1.334c-1.734-1.009-15.214-12.986-15.214-12.986s17.108,5.679,18.851,6.685   C53.994,66.646,54.595,68.868,53.591,70.608z M53.264,61.966c-2.012,0-19.668-3.635-19.668-3.635s17.656-3.638,19.668-3.638   c2.005,0.002,3.629,1.627,3.634,3.638C56.893,60.335,55.269,61.966,53.264,61.966z M77.294,29.076   c0.854,0.75,1.215,1.753,1.331,2.718c-0.528-0.44-1.076-0.859-1.634-1.264c-0.365-0.44-0.822-0.781-1.389-0.956   c-0.721-0.465-1.462-0.9-2.224-1.305c0.586-1.403,0.838-3.07,0.838-3.07c1.415,1.71,0.748,3.035,0.748,3.035   c5.42,0.171,4.067-3.266,4.067-3.266c1.172,1.16,1.167,2.584,1.167,2.584c2.904-1.527,5.515,0.075,5.515,0.075   c-2.101-0.917-4.873,0.722-4.873,0.722c1.608,1.049,1.958,3.456,1.958,3.456C81.082,29.754,77.294,29.076,77.294,29.076z"></path></g></svg>