<svg fill="#EC0AAC" xmlns="http://www.w3.org/2000/svg" xmlns:xlink="http://www.w3.org/1999/xlink" xmlns:sketch="http://www.bohemiancoding.com/sketch/ns" viewBox="0 0 70 70" version="1.1" x="0px" y="0px"><title>wild-rose-flower</title><desc>Created with Sketch.</desc><g stroke="none" stroke-width="1" fill="none" fill-rule="evenodd" sketch:type="MSPage"><g sketch:type="MSArtboardGroup" transform="translate(-595.000000, -495.000000)"><path d="M637.492029,522.964481 C637.882019,523.116547 638.192649,523.479546 638.301433,523.917147 C638.440868,524.478043 638.335881,525.003838 637.399143,525.038374 L637.399143,525.038374 C637.832204,525.165864 638.184142,525.550958 638.301433,526.022779 C638.445691,526.603079 638.328324,527.145808 637.298913,527.145808 C636.269501,527.145808 636.060025,526.591307 636.060025,526.022779 C636.060025,525.515011 636.42766,525.093109 636.911275,525.008728 C636.214684,524.883807 636.060025,524.405655 636.060025,523.917147 C636.060025,523.462364 636.354938,523.076462 636.763954,522.940251 C636.360059,522.854876 636.149323,522.644391 636.047159,522.383686 C635.987424,522.728623 635.709664,522.981352 635.007197,522.981352 C633.977786,522.981352 633.768309,522.426851 633.768309,521.858323 C633.768309,521.289795 634.229193,520.828911 634.797721,520.828911 C635.322684,520.828911 635.788545,521.21183 635.970431,521.727374 C636.034759,521.220677 636.467425,520.828911 636.991592,520.828911 C637.560121,520.828911 638.05933,521.278022 638.203589,521.858323 C638.332921,522.378581 638.251967,522.86864 637.492029,522.964481 L637.492029,522.964481 Z M632.117562,519.73512 C632.872405,519.637616 632.952659,519.148666 632.823638,518.629662 C632.67938,518.049361 632.18017,517.60025 631.611641,517.60025 C631.043113,517.60025 630.58223,518.061134 630.58223,518.629662 C630.58223,519.072345 630.709233,519.506524 631.251432,519.677046 C630.860554,519.82307 630.58223,520.19987 630.58223,520.641677 C630.58223,521.210205 630.791706,521.764706 631.821118,521.764706 C632.850529,521.764706 632.967896,521.221978 632.823638,520.641677 C632.724649,520.243479 632.458528,519.907053 632.117562,519.73512 L632.117562,519.73512 Z M639.174318,529.72454 C639.011753,529.85995 638.748861,529.94269 638.346926,529.94269 C637.317514,529.94269 637.108038,529.38819 637.108038,528.819661 C637.108038,528.813643 637.10809,528.807638 637.108193,528.801644 C636.177063,529.594886 635.390986,531.601384 636.233756,531.924779 C635.394,532.809821 634.401152,533.434119 634.898697,534.826004 C635.05579,534.458384 635.420677,534.200763 635.845734,534.200763 C636.414263,534.200763 636.913473,534.649874 637.057731,535.230175 C637.201989,535.810476 637.084622,536.353204 636.055211,536.353204 C635.025799,536.353204 634.816323,535.798703 634.816323,535.230175 C634.816323,535.134327 634.829422,535.041539 634.853928,534.953504 L634.853928,534.953504 C633.64399,534.58598 631.728094,535.312345 631.479758,536.384128 C630.811461,535.279556 629.835514,535.303983 629.002983,536.298977 C628.282212,535.303983 626.693841,534.598586 625.22863,534.990327 C625.343733,533.670514 624.117402,533.118653 622.910523,533.454613 L622.910523,533.454613 C622.906868,533.873032 622.657675,534.200763 621.857736,534.200763 C620.828324,534.200763 620.618848,533.646263 620.618848,533.077734 C620.618848,532.509206 621.079732,532.048323 621.64826,532.048323 C622.201353,532.048323 622.68884,532.473377 622.847727,533.030764 C622.84852,532.238488 622.666148,530.779354 621.764706,530.583329 C622.818951,529.805736 624.053243,528.500927 623.263446,526.638469 C624.243465,526.851968 625.728265,525.949526 625.346646,524.547035 C626.614969,525.278938 628.638095,523.892093 629.002983,522.483741 C629.914386,523.892093 631.854819,524.99823 632.979915,523.691385 C632.979915,525.228658 634.428007,525.587463 635.361652,525.587463 C635.361653,526.983362 634.061361,527.91639 637.114878,528.700349 L637.114878,528.700349 C637.174009,528.188027 637.609277,527.79025 638.13745,527.79025 C638.705978,527.79025 639.205188,528.239361 639.349446,528.819661 C639.381643,528.949175 639.400807,529.076817 639.399709,529.196972 C639.588494,528.966636 639.87522,528.819661 640.196273,528.819661 C640.764802,528.819661 641.264012,529.268773 641.40827,529.849073 C641.552528,530.429374 641.435161,530.972102 640.40575,530.972102 C639.376338,530.972102 639.166862,530.417602 639.166862,529.849073 C639.166862,529.806922 639.169395,529.765363 639.174318,529.72454 L639.174318,529.72454 Z M633.840721,538.073756 C633.725067,538.330925 633.434605,538.505645 632.850529,538.505645 C631.821118,538.505645 631.611641,537.951144 631.611641,537.382616 C631.611641,536.814087 632.072525,536.353204 632.641053,536.353204 C633.09515,536.353204 633.505024,536.639718 633.725131,537.050748 C633.863216,536.645051 634.247464,536.353204 634.699877,536.353204 C635.268405,536.353204 635.767615,536.802315 635.911873,537.382616 C636.056132,537.962916 635.938765,538.505645 634.909353,538.505645 C634.328992,538.505645 634.009245,538.329398 633.840721,538.073756 L633.840721,538.073756 Z M621.862331,535.786255 C621.791545,536.115375 621.509768,536.353204 620.828324,536.353204 C619.798913,536.353204 619.589436,535.798703 619.589436,535.230175 C619.589436,534.661647 620.05032,534.200763 620.618848,534.200763 C621.131429,534.200763 621.587663,534.565831 621.778216,535.062971 C621.858091,534.573963 622.282522,534.200763 622.794118,534.200763 C623.362646,534.200763 623.861856,534.649874 624.006114,535.230175 C624.150373,535.810476 624.033006,536.353204 623.003594,536.353204 C622.325765,536.353204 622.003438,536.112788 621.862331,535.786255 L621.862331,535.786255 Z M634.933437,561.396555 C620.252254,571.633371 619.632569,549.541991 625.538545,539.884464 C620.825196,547.483398 604.670841,565.026138 601.106603,547.00741 C585.910716,539.025951 602.914105,527.478245 615.987333,528.846436 C602.914105,527.478245 588.514404,516.491987 604.670841,508.958883 C608.258703,493.505644 622.744355,504.200871 625.538545,515.376622 C622.744355,505.478587 634.889456,485.141171 642.290615,502.497415 C660.03691,498.567756 652.258015,517.268569 640.447927,523.438505 C648.596264,518.951918 671.890723,514.246181 662.026364,531.916574 C671.890723,549.426639 647.374844,548.003648 639.77489,539.025951 C647.374844,548.003648 651.211513,565.816793 634.933437,561.396555 Z M626.091829,519.752691 C627.121241,519.752691 627.238608,519.209963 627.09435,518.629662 C626.950091,518.049361 626.450881,517.60025 625.882353,517.60025 C625.313825,517.60025 624.852941,518.061134 624.852941,518.629662 C624.852941,519.19819 625.062417,519.752691 626.091829,519.752691 Z M624.945971,522.840926 C625.975383,522.840926 626.09275,522.298198 625.948492,521.717897 C625.804233,521.137597 625.305024,520.688486 624.736495,520.688486 C624.167967,520.688486 623.707083,521.149369 623.707083,521.717897 C623.707083,522.286426 623.91656,522.840926 624.945971,522.840926 Z M621.857736,523.917147 C622.887148,523.917147 623.004515,523.374418 622.860257,522.794118 C622.715998,522.213817 622.216788,521.764706 621.64826,521.764706 C621.079732,521.764706 620.618848,522.225589 620.618848,522.794118 C620.618848,523.362646 620.828324,523.917147 621.857736,523.917147 Z M621.857736,526.069587 C622.887148,526.069587 623.004515,525.526859 622.860257,524.946558 C622.715998,524.366258 622.216788,523.917147 621.64826,523.917147 C621.079732,523.917147 620.618848,524.37803 620.618848,524.946558 C620.618848,525.515087 620.828324,526.069587 621.857736,526.069587 Z M619.566021,527.145808 C620.595433,527.145808 620.7128,526.603079 620.568541,526.022779 C620.424283,525.442478 619.925073,524.993367 619.356545,524.993367 C618.788016,524.993367 618.327133,525.45425 618.327133,526.022779 C618.327133,526.591307 618.536609,527.145808 619.566021,527.145808 Z M620.711878,529.298248 C621.74129,529.298248 621.858657,528.75552 621.714399,528.175219 C621.57014,527.594919 621.070931,527.145808 620.502402,527.145808 C619.933874,527.145808 619.47299,527.606691 619.47299,528.175219 C619.47299,528.743748 619.682467,529.298248 620.711878,529.298248 Z M619.566021,532.048323 C620.595433,532.048323 620.7128,531.505594 620.568541,530.925294 C620.424283,530.344993 619.925073,529.895882 619.356545,529.895882 C618.788016,529.895882 618.327133,530.356765 618.327133,530.925294 C618.327133,531.493822 618.536609,532.048323 619.566021,532.048323 Z M624.149452,538.505645 C625.178863,538.505645 625.29623,537.962916 625.151972,537.382616 C625.007714,536.802315 624.508504,536.353204 623.939975,536.353204 C623.371447,536.353204 622.910564,536.814087 622.910564,537.382616 C622.910564,537.951144 623.12004,538.505645 624.149452,538.505645 Z M627.237687,538.505645 C628.267099,538.505645 628.384466,537.962916 628.240207,537.382616 C628.095949,536.802315 627.596739,536.353204 627.028211,536.353204 C626.459682,536.353204 625.998799,536.814087 625.998799,537.382616 C625.998799,537.951144 626.208275,538.505645 627.237687,538.505645 Z M628.499991,540.658085 C629.529402,540.658085 629.646769,540.115357 629.502511,539.535056 C629.358253,538.954756 628.859043,538.505645 628.290514,538.505645 C627.721986,538.505645 627.261103,538.966528 627.261103,539.535056 C627.261103,540.103585 627.470579,540.658085 628.499991,540.658085 Z M630.558814,539.581865 C631.588226,539.581865 631.705593,539.039137 631.561334,538.458836 C631.417076,537.878535 630.917866,537.429424 630.349338,537.429424 C629.780809,537.429424 629.319926,537.890308 629.319926,538.458836 C629.319926,539.027364 629.529402,539.581865 630.558814,539.581865 Z M639.376338,533.171351 C640.40575,533.171351 640.523117,532.628623 640.378858,532.048323 C640.2346,531.468022 639.73539,531.018911 639.166862,531.018911 C638.598333,531.018911 638.13745,531.479794 638.13745,532.048323 C638.13745,532.616851 638.346926,533.171351 639.376338,533.171351 Z M637.298913,534.200763 C638.328324,534.200763 638.445691,533.658035 638.301433,533.077734 C638.157175,532.497434 637.657965,532.048323 637.089436,532.048323 C636.520908,532.048323 636.060025,532.509206 636.060025,533.077734 C636.060025,533.646263 636.269501,534.200763 637.298913,534.200763 Z M640.40575,528.222028 C641.435161,528.222028 641.552528,527.6793 641.40827,527.098999 C641.264012,526.518698 640.764802,526.069587 640.196273,526.069587 C639.627745,526.069587 639.166862,526.530471 639.166862,527.098999 C639.166862,527.667527 639.376338,528.222028 640.40575,528.222028 Z M628.383545,521.905132 C629.412956,521.905132 629.530323,521.362403 629.386065,520.782103 C629.241807,520.201802 628.742597,519.752691 628.174068,519.752691 C627.60554,519.752691 627.144657,520.213574 627.144657,520.782103 C627.144657,521.350631 627.354133,521.905132 628.383545,521.905132 Z M629.529402,519.752691 C630.558814,519.752691 630.676181,519.209963 630.531923,518.629662 C630.387664,518.049361 629.888454,517.60025 629.319926,517.60025 C628.751398,517.60025 628.290514,518.061134 628.290514,518.629662 C628.290514,519.19819 628.499991,519.752691 629.529402,519.752691 Z" fill="#EC0AAC" sketch:type="MSShapeGroup"></path></g></g></svg>