<svg fill="#BE5B0C" xmlns="http://www.w3.org/2000/svg" xmlns:xlink="http://www.w3.org/1999/xlink" version="1.1" x="0px" y="0px" viewBox="0 0 100 100" enable-background="new 0 0 100 100" xml:space="preserve"><path d="M36.472,77.276c0.743,0.12,1.355,0.358,1.771,0.564c0.419,0.208,0.651,0.346,0.651,0.346  c0.381,0.192,0.741,0.397,1.091,0.606c0.446-0.056,0.885-0.092,1.314-0.099C40.3,78,39.414,77.415,39.414,77.415  s-0.051-0.042-0.142-0.117c-0.09-0.076-0.22-0.188-0.377-0.329c-0.311-0.286-0.734-0.692-1.162-1.188  c-0.429-0.495-0.868-1.076-1.203-1.731c-0.17-0.327-0.312-0.675-0.414-1.036c-0.105-0.359-0.168-0.738-0.172-1.134  c-0.012-0.785-0.123-1.425-0.274-1.941c-0.155-0.511-0.354-0.899-0.549-1.191c-0.394-0.572-0.763-0.751-0.763-0.751  s-0.193,0.121-0.287,0.381c-0.06,0.167-0.075,0.396,0.025,0.688c-0.149-0.272-0.365-0.62-0.633-1.007  c-0.292-0.425-0.66-0.872-1.072-1.303c-0.209-0.21-0.434-0.412-0.667-0.601c-0.116-0.094-0.233-0.187-0.354-0.271  c-0.123-0.082-0.246-0.162-0.372-0.231c0,0-0.093,0.095-0.119,0.244c-0.007,0.051-0.006,0.106,0.006,0.167  c-0.102-0.131-0.236-0.284-0.404-0.443c-0.235-0.233-0.546-0.468-0.927-0.68c-0.378-0.211-0.84-0.381-1.37-0.481  c0,0-0.059,0.082-0.05,0.218c0.01,0.137,0.092,0.331,0.372,0.561c0,0-0.088-0.068-0.249-0.168c-0.163-0.099-0.394-0.235-0.691-0.354  c-0.298-0.117-0.654-0.231-1.05-0.299c-0.529-0.08-0.977-0.188-1.454-0.212c0,0-0.25,0.938,0.357,1.792  c0.227,0.319,0.595,0.659,1.128,1.056c0,0-0.125-0.044-0.325-0.131c-0.202-0.089-0.485-0.207-0.799-0.359  c-0.623-0.316-1.395-0.726-1.912-1.267c-0.264-0.264-0.613-0.458-0.986-0.6c-0.095-0.036-0.19-0.067-0.287-0.097  c-0.097-0.026-0.196-0.051-0.293-0.07c-0.197-0.041-0.392-0.071-0.576-0.095c-0.189-0.022-0.364-0.036-0.525-0.045  c-0.164-0.004-0.311-0.001-0.434,0.002c-0.246,0.009-0.396,0.023-0.396,0.023s0.002,0.395,0.27,0.841  c0.134,0.226,0.336,0.457,0.626,0.675c0.291,0.221,0.674,0.417,1.188,0.55c0,0-0.222-0.062-0.582-0.132  c-0.181-0.035-0.397-0.071-0.637-0.104c-0.24-0.031-0.509-0.044-0.787-0.052c-0.283-0.005-0.572-0.01-0.87,0.027  c-0.296,0.038-0.593,0.09-0.877,0.164c-0.282,0.071-0.556,0.183-0.801,0.322c-0.247,0.137-0.465,0.3-0.648,0.495  c0,0,0.041,0.168,0.265,0.316c0.115,0.074,0.272,0.146,0.495,0.19c0.111,0.021,0.237,0.036,0.383,0.041  c0.145,0.004,0.309,0.014,0.492,0.002c0,0-0.169,0.011-0.43,0.049c-0.262,0.047-0.615,0.125-0.973,0.241  c-0.088,0.027-0.18,0.06-0.268,0.096c-0.09,0.034-0.179,0.077-0.265,0.121c-0.172,0.087-0.336,0.186-0.479,0.295  c-0.289,0.223-0.498,0.479-0.554,0.804c0,0,0.042,0.019,0.116,0.041c0.073,0.025,0.177,0.061,0.306,0.088  c0.212,0.045,0.488,0.072,0.782,0.019c-0.081,0.018-0.182,0.045-0.307,0.082c-0.284,0.087-0.668,0.199-1.058,0.41  c-0.785,0.38-1.56,1.058-1.664,1.868c0,0,0.113,0.076,0.32,0.183c0.209,0.109,0.509,0.248,0.881,0.377  c0.184,0.057,0.393,0.137,0.614,0.197c0.223,0.064,0.461,0.12,0.714,0.161c0.254,0.052,0.524,0.096,0.812,0.12  c0.283,0.017,0.589,0.041,0.911,0.037c0,0-0.155,0.029-0.366,0.107c-0.212,0.072-0.472,0.228-0.687,0.441  c0,0,0.146,0.218,0.535,0.418c0.396,0.218,1.026,0.417,2.049,0.464c0,0-0.234,0.038-0.452,0.185s-0.417,0.402-0.358,0.847  c0,0,0.341,0.159,0.841,0.154c0.253,0.01,0.55-0.015,0.875-0.119c0.291-0.088,0.61-0.223,0.949-0.456  c-0.116,0.087-0.301,0.239-0.479,0.443c-0.146,0.166-0.287,0.366-0.391,0.595c-0.102,0.231-0.164,0.491-0.155,0.767  c0,0,0.05,0.005,0.128,0.01c0.081,0.008,0.193,0.015,0.321,0.007c0.254-0.011,0.56-0.083,0.798-0.265l-0.153,0.565  c0,0,0.312,0.081,0.771,0.057c0.231-0.003,0.502-0.029,0.793-0.105c0.292-0.074,0.608-0.178,0.929-0.366  c0.161-0.097,0.317-0.165,0.469-0.22c0.149-0.058,0.297-0.1,0.435-0.132c0.276-0.067,0.522-0.077,0.726-0.067  c0.203,0.007,0.366,0.035,0.476,0.062c0.056,0.011,0.097,0.025,0.125,0.037c0.028,0.013,0.044,0.016,0.044,0.016  s-0.101,0.001-0.259,0.023c-0.157,0.021-0.369,0.057-0.591,0.115c-0.218,0.057-0.448,0.145-0.642,0.264  c-0.192,0.117-0.347,0.267-0.429,0.451c-0.32,0.729-0.766,0.818-0.766,0.818s0.078,0.028,0.205,0.063  c0.125,0.034,0.301,0.09,0.502,0.122c0.401,0.062,0.9,0.092,1.301-0.136c0,0-0.4,0.228-0.496,0.636c0,0,0.082,0.044,0.219,0.095  c0.134,0.048,0.327,0.112,0.552,0.153c0.446,0.074,1.022,0.076,1.565-0.309c0,0-0.117,0.086-0.224,0.262  c-0.107,0.172-0.199,0.43-0.161,0.771c0,0,0.17,0.044,0.45,0.084c0.138,0.021,0.305,0.037,0.49,0.055  c0.186,0.018,0.391,0.03,0.608,0.031c0.862,0.011,1.918-0.13,2.654-0.833c0.452-0.441,0.916-0.79,1.379-1.056  c0.463-0.271,0.928-0.458,1.385-0.585C34.861,77.154,35.732,77.155,36.472,77.276z M84.512,75.186  c-0.012-0.072-0.022-0.128-0.031-0.173c-0.44-5.895-5.395-8.457-5.395-8.457l-2.807-1.481l-1.522-0.71  c-0.249-0.153-2.279-1.355-5.351-1.896c-2.964-0.521-7.489-0.489-12.209,2.628c-1.061,0.701-2.003,1.529-2.819,2.477  c0.636-3.065,2.329-8.838,6.306-10.888l0.019,0.037c0,0,4.102-2.554,8.298,0.678c1.701,1.312,4.91-0.136,4.91-0.136  c0.001-0.433-0.198-0.679-0.367-0.819c0.63,0.097,1.308,0.039,1.835-0.12c0.586-0.177,1.114-0.626,1.748-0.471  c-0.232-0.282-0.546-0.565-0.918-0.631C76.701,55.1,77.16,55,77.629,54.739c0.27-0.149,0.689-0.457,0.814-0.751  c-0.574,0.274-1.457-0.193-1.986-0.41c-0.32-0.132-0.635-0.306-0.964-0.425c0.382-0.063,0.835-0.091,1.371-0.021  c1.674,0.22,3.032-0.744,3.032-0.744l-0.399-0.462c0.689,0.126,1.552-0.453,1.552-0.453c-0.17-0.373-0.489-0.624-0.827-0.797  c0.498-0.082,0.996-0.197,1.437-0.398c0.367-0.167,0.751-0.342,1.044-0.625c0.162-0.156,0.277-0.345,0.416-0.508  c-0.299,0.008-0.593-0.251-0.841-0.397c-0.164-0.097-0.376-0.29-0.569-0.295c0.632-0.263,1.138-0.692,1.471-1.281  c0.149-0.264,0.286-0.519,0.38-0.807c0.046-0.14,0.089-0.312,0.171-0.426c-0.528,0.206-1.086,0.204-1.636,0.273  c1.877-1.46,2.244-3.249,2.244-3.249c-1.152-0.917-3.216-0.2-3.779,0.023c0.556-0.262,0.798-0.806,0.798-0.806  c-0.947-0.91-3.103,0.167-3.103,0.167c1.155-0.61,0.888-1.266,0.888-1.266c-1.9-0.652-4.26,1.513-4.26,1.513  c1.381-1.219,0.621-2.656,0.621-2.656s-1.83,0.66-2.228,1.972c-0.17,0.563-0.541,1.09-0.909,1.517  c-0.001-0.323-0.022-0.649-0.096-0.943c-0.068-0.277-0.161-0.557-0.245-0.828c-0.068-0.225-0.235-0.417-0.292-0.632  c-0.068,0.193-0.548,0.397-0.752,0.495c-0.3,0.143-0.579,0.297-0.857,0.474c-0.305,0.193-0.563,0.36-0.805,0.574  c0.029-0.27-0.115-0.407-0.115-0.407c-1.104,0.5-1.629,1.423-1.853,1.968c-0.016-0.246-0.197-0.396-0.197-0.396  c-1.061,1.008-1.794,2.792-2.112,3.68c0.134-0.759-0.399-1.067-0.399-1.067s-1.229,0.77-1.018,3.969  c0.185,2.82-2.583,4.96-3.246,5.43c-4.715,2.306-6.482,9.007-7.061,12.101c0.035-1.242-0.011-2.48-0.089-3.569  c-0.095-1.368-0.405-4.987-1.306-9.928l0.005-0.388c0.015-0.123,0.882-7.312,2.534-13.89l0.274-1.065  c0.688-2.568,1.499-4.973,2.425-6.742l0.001,0.001c0,0,1.202-1.894,2.13-2.624c0.094-0.074,0.163-0.144,0.213-0.208  c0.47-0.428,1.595-1.281,2.099-0.179c0.49,1.415,1.286,2.367,1.286,2.367c0.283-0.299,0.454-0.573,0.556-0.812  c0.155,1.754,1.898,4.074,1.898,4.074c0.592-0.265,0.632-1.051,0.613-1.43c0.207,1.212,2.197,2.732,2.197,2.732  c0.321-0.238,0.138-1.388,0.138-1.388c1.264,1.661,2.999,1.833,2.999,1.833c0.315-1.385-0.275-2.641-0.721-3.347  c0.475,0.221,1.109,0.226,1.523,0.513c-0.01-0.216,0.104-0.416,0.124-0.63c0.027-0.294,0.013-0.57-0.103-0.838  c-0.158-0.369-0.416-0.687-0.678-0.986c-0.103-0.118-0.216-0.229-0.324-0.344c0.543,0.083,1.452,0.463,2.02,2.014  c0.848,2.321,2.618,2.146,2.618,2.146c0.613-0.748-0.175-1.77-0.175-1.77c1.984,2.003,3.719,1.11,3.719,1.11  s-0.583-0.664-0.472-2.325c0.079-1.197-1.403-2.311-2.238-2.839c0.952,0.316,2.213-0.184,2.213-0.184s-0.314-0.507-0.837-0.999  c-0.368-0.417-0.836-0.767-1.285-1.008c-0.476-0.256-0.985-0.415-1.479-0.632c-0.2-0.088-0.408-0.183-0.589-0.305  c-0.067-0.045-0.13-0.112-0.193-0.176c1.201,0.162,2.102-0.503,2.102-0.503c-9.081-6.316-15.465,0.708-15.465,0.708  s-2.396,2.095-3.927,4.298c0-1.891,5.559-6.714,5.915-7.18c0.524-0.684,0.771-1.444,0.899-2.288  c0.179-1.179-0.475-2.298-0.352-3.466c-0.267,0.138-0.549,0.272-0.814,0.427c-0.055,0.032-0.144,0.095-0.236,0.16  c0.242-0.525,0.081-1.33-0.058-1.813c-0.183-0.638-0.422-1.237-0.461-1.897c-0.248,0.165-0.514,0.367-0.661,0.632  c-0.321-0.963-0.572-2.084-1.229-2.886c0.003,0.722-0.488,1.429-0.834,2.021c-0.047,0.081-0.076,0.155-0.112,0.232  c-0.013-0.283-0.021-0.579-0.014-0.901c0.025-1.046-0.335-2.123-0.741-2.905c-0.097-0.196-0.205-0.374-0.301-0.531  c-0.094-0.156-0.183-0.292-0.263-0.401c-0.157-0.222-0.259-0.343-0.259-0.343l-0.306,0.47c-0.038-0.223-0.132-0.467-0.26-0.704  c-0.063-0.119-0.133-0.238-0.203-0.351c-0.075-0.113-0.153-0.221-0.23-0.322c-0.152-0.203-0.299-0.376-0.413-0.494  c-0.113-0.12-0.187-0.189-0.187-0.189c-0.398,0.301-0.376,0.956-0.318,1.527c0.037,0.283,0.082,0.55,0.121,0.745  c0.009,0.045,0.018,0.086,0.026,0.122c-0.144-0.561-0.376-1.075-0.666-1.51c-0.081-0.123-0.159-0.24-0.246-0.352  c-0.089-0.109-0.177-0.213-0.265-0.313c-0.175-0.201-0.36-0.372-0.536-0.523c-0.087-0.076-0.173-0.146-0.256-0.211  c-0.085-0.062-0.168-0.12-0.244-0.173c-0.158-0.105-0.298-0.192-0.415-0.259c-0.239-0.127-0.385-0.185-0.385-0.185  c-0.138,0.146-0.163,0.322-0.13,0.498c0.035,0.175,0.128,0.354,0.233,0.522c0.104,0.166,0.228,0.311,0.32,0.419  c0.091,0.11,0.156,0.177,0.156,0.177c-0.644-0.522-1.229-0.853-1.719-1.055c-0.487-0.21-0.886-0.287-1.182-0.328  c-0.603-0.054-0.828,0.071-0.828,0.071c0.241,0.309,0.542,0.566,0.772,0.77c0.116,0.1,0.22,0.178,0.292,0.234  c0.071,0.056,0.114,0.089,0.114,0.089c-0.768-0.434-1.516-0.65-2.162-0.746c-0.65-0.085-1.202-0.056-1.642,0.026  c-0.22,0.042-0.41,0.086-0.575,0.139c-0.165,0.055-0.3,0.109-0.409,0.157c-0.218,0.097-0.327,0.167-0.327,0.167  c0.057,0.188,0.149,0.366,0.265,0.531c0.116,0.165,0.255,0.318,0.404,0.471c0.301,0.296,0.648,0.564,0.969,0.802  c0.323,0.234,0.618,0.443,0.837,0.59c0.092,0.066,0.171,0.118,0.23,0.157c-0.093-0.054-0.188-0.095-0.28-0.125  c-0.135-0.043-0.267-0.057-0.379-0.063c-0.223-0.015-0.378,0.03-0.378,0.03c-0.011,0.282,0.089,0.561,0.245,0.802  c0.151,0.249,0.354,0.47,0.544,0.674c0.099,0.097,0.194,0.19,0.28,0.277c0.088,0.085,0.174,0.153,0.24,0.221  c0.138,0.128,0.233,0.2,0.233,0.2c-0.106-0.077-0.205-0.137-0.295-0.184c-0.091-0.046-0.181-0.07-0.258-0.089  c-0.157-0.036-0.284-0.026-0.385,0.008c-0.199,0.061-0.285,0.188-0.285,0.188c0.131,0.807,0.616,1.328,1.081,1.782  c0.121,0.105,0.231,0.218,0.345,0.308c0.109,0.095,0.208,0.185,0.3,0.253c0.172,0.15,0.295,0.236,0.295,0.236  c-0.274-0.208-0.55-0.287-0.8-0.294c-0.255,0.001-0.478,0.064-0.671,0.157c-0.192,0.093-0.347,0.205-0.455,0.292  c-0.11,0.087-0.171,0.151-0.171,0.151s0.035,0.055,0.103,0.135c0.063,0.087,0.164,0.19,0.287,0.309  c0.252,0.228,0.621,0.49,1.155,0.551c0.534,0.055,1.035,0.399,1.385,0.758c0.025,0.025,0.043,0.049,0.067,0.074  c-0.245-0.088-0.493-0.167-0.745-0.218c-0.575-0.117-1.217,0.051-1.776-0.089c0.334,0.516,0.457,1.178,0.75,1.727  c0.113,0.212,0.242,0.423,0.403,0.601c0.043,0.048,0.1,0.097,0.157,0.146c-0.134-0.074-0.257-0.106-0.346-0.098  c-0.12,0.01-0.192,0.059-0.192,0.059c0.148,0.631,0.525,1.117,0.872,1.462c0.124,0.121,0.243,0.223,0.344,0.305  c-0.053-0.013-0.103-0.016-0.147-0.013c-0.137,0.012-0.233,0.073-0.233,0.073c0.19,0.364,0.449,0.746,0.742,1.116  c0.287,0.373,0.6,0.737,0.889,1.062c0.264,0.299,0.505,0.561,0.691,0.759c-0.219-0.163-0.418-0.206-0.58-0.201  c-0.247,0.007-0.405,0.128-0.405,0.128s0.009,0.083,0.067,0.222c0.058,0.141,0.155,0.342,0.337,0.581  c0.357,0.481,1.027,1.121,2.289,1.808c1.265,0.679,1.924,2.202,2.182,3.563c0.134,0.68,0.173,2.026,0.168,2.128  c-2.55,5.148-4.146,14.359-4.824,18.959c-1.339-6.358-3.767-14.915-7.993-22.166c0,0-2.892-4.803,0.911-9.64  c0.146-0.185,0.255-0.39,0.348-0.602c0.114-0.153,0.236-0.306,0.341-0.456c0.506-0.726,0.687-1.708,0.615-2.574  c-0.058-0.694-0.145-1.382-0.504-1.989c-0.2-0.337-0.726-0.771-0.782-1.153c-0.052,0.245-0.475,0.531-0.636,0.744  c0.287-0.494-0.151-1.315-0.401-1.724c-0.247-0.402-0.92-0.872-0.86-1.392c-0.191,0.183-0.442,0.379-0.499,0.648  c-0.167-0.692-0.517-1.593-1.04-2.078c0.008,0.767-0.812,1.577-1.189,2.209c-0.134,0.224-0.212,0.442-0.266,0.665  c-0.056-0.42-0.072-0.91,0.008-1.479c0.276-1.94-0.826-3.529-0.826-3.529l-0.542,0.458c0.155-0.798-0.506-1.807-0.506-1.807  c-0.989,0.436-1.279,1.768-1.353,2.245c0.273-2.33-1.256-3.599-1.256-3.599c-0.988,0.419-0.514,1.614-0.514,1.614  c-1.449-2.4-2.712-2.38-2.712-2.38c-0.099,0.771,0.211,1.509,0.211,1.509c-1.724-2.797-4.222-3.309-4.222-3.309  c-1.079,1.327-0.27,3.732-0.017,4.388C27.31,5.049,26.68,4.76,26.68,4.76c-1.066,1.089,0.158,3.605,0.158,3.605  c-0.695-1.35-1.459-1.046-1.459-1.046c-0.779,2.199,1.707,4.964,1.707,4.964c-1.398-1.617-3.077-0.752-3.077-0.752  s0.745,2.134,2.265,2.609c1.519,0.477,2.843,2.221,2.843,2.221c-2.31-1.597-3.323-0.266-3.323-0.266  c0.152,1.808,1.668,2.827,1.668,2.827c-0.628-0.396-0.947-0.052-0.947-0.052c0.568,1.288,1.633,1.908,2.263,2.174  c-0.286,0.016-0.461,0.223-0.461,0.223c1.155,1.241,3.21,2.112,4.24,2.494c-0.875-0.159-1.235,0.455-1.235,0.455  s0.88,1.435,4.597,1.229c3.717-0.207,6.478,3.946,6.478,3.946c0.711,1.217,1.372,2.475,1.986,3.756l-1.458-1.861  c0,0-5.793-7.52-15.355-1.959c0,0,1.189,1.059,2.781,0.545c0,0-1.601,0.99-2.965,1.229c-1.365,0.238-2.386,1.651-2.386,1.651  s1.217,0.599,2.192,0.361c-0.875,0.459-2.444,1.449-2.461,2.649c-0.025,1.664-0.658,2.278-0.658,2.278s1.412,0.875,3.314-0.437  c-0.041,0.229-0.138,0.497-0.147,0.667c-0.017,0.331,0.039,0.699-0.229,0.949c0.598,0.217,1.367-0.074,1.914-0.31  c0.826-0.355,1.478-0.857,1.874-1.685c0.266-0.557,0.509-1.152,0.872-1.655c0.043-0.06,0.094-0.114,0.14-0.172  c0.634-0.293,1.149-0.156,1.149-0.156s-1.798,1.48-1.514,2.402c0,0,1.08,0.105,1.741-0.503c-0.422,0.47-1.56,1.922-1.31,3.674  c0,0,1.744-0.031,3.139-1.584c0,0-0.275,1.132,0.025,1.395c0,0,2.106-1.354,2.412-2.546c-0.048,0.377-0.074,1.166,0.495,1.476  c0,0,1.496-1.688,2.053-3.278c0.035,0.05,0.072,0.1,0.101,0.137c0.206,0.261,0.413,0.519,0.619,0.78  c-0.053-0.225,0.236-0.353,0.384-0.467c0.269-0.208,0.531-0.452,0.735-0.734c0.324-0.447,0.471-0.944,0.593-1.477  c0.048-0.211,0.106-0.47,0.192-0.715c0.57-0.18,1.255,0.442,1.584,0.796c0.045,0.068,0.108,0.143,0.196,0.224  c0.796,0.739,1.744,2.479,1.89,2.751c0.961,2.473,2.396,7.351,2.366,7.321l0.535,1.955c0.024,0.024,1.235,5.032,1.639,7.24  c-3.51-2.143-7.27-2.988-7.27-2.988s-0.022-0.01-0.063-0.023c-0.035-0.016-0.088-0.033-0.157-0.063  c-0.134-0.053-0.322-0.134-0.551-0.244c-0.457-0.219-1.069-0.555-1.72-1.031c-0.651-0.479-1.341-1.102-1.954-1.926  c-0.308-0.408-0.594-0.873-0.85-1.387c-0.201-0.413-0.373-0.869-0.523-1.354c-0.049-0.24-0.116-0.476-0.19-0.708  c-0.223-0.698-0.641-1.22-1.174-1.708c-0.561-0.513-1.142-0.773-1.85-1.033c-0.308-0.113-1.263-0.239-1.382-0.59  c-0.17,0.323-0.432,0.537-0.541,0.916c-0.037,0.126-0.071,0.324-0.08,0.519c-0.469-0.338-1.053-0.51-1.569-0.577  c-0.336-0.048-0.641-0.059-0.863-0.048c-0.223,0.006-0.358,0.022-0.358,0.022c-0.017,0.38,0.342,0.681,0.42,0.742  c-0.034-0.016-0.067-0.032-0.101-0.048c-0.213-0.129-0.458-0.231-0.726-0.297c-0.012-0.003-0.024-0.003-0.035-0.006  c-0.267-0.087-0.538-0.161-0.816-0.205c-0.703-0.11-1.374-0.07-1.991-0.429c0.165,0.101,0.246,0.251,0.371,0.376  c0,0,0.484,0.89,0.689,1.228c0.175,0.288,0.412,0.532,0.668,0.759c-0.049-0.022-0.095-0.037-0.145-0.061  c-0.187-0.091-0.382-0.197-0.585-0.309c-0.406-0.231-0.835-0.399-1.258-0.495c-0.423-0.091-0.831-0.134-1.186-0.146  c-0.717-0.003-1.216,0.096-1.216,0.096l0.229,0.565c-0.351-0.188-0.843-0.194-1.243-0.168c-0.2,0.014-0.376,0.039-0.505,0.059  c-0.129,0.025-0.206,0.046-0.206,0.046c0.023,0.278,0.156,0.519,0.333,0.729c0.177,0.214,0.402,0.396,0.621,0.542  c0.288,0.195,0.566,0.332,0.722,0.4c-0.481-0.2-0.954-0.307-1.394-0.336c-0.478-0.023-0.916,0.025-1.28,0.105  c-0.732,0.185-1.17,0.466-1.17,0.466c0.073,0.443,0.428,0.621,0.758,0.689c0.333,0.065,0.644,0.023,0.644,0.023  c-1.336,0.365-2.057,0.888-2.433,1.267c-0.374,0.4-0.421,0.669-0.421,0.669c0.352,0.079,0.702,0.057,0.974,0.052  c0.269-0.017,0.452-0.054,0.452-0.054c-0.363,0.13-0.693,0.27-0.987,0.449c-0.295,0.172-0.559,0.349-0.791,0.53  c-0.23,0.196-0.429,0.39-0.603,0.576c-0.172,0.19-0.322,0.365-0.437,0.548c-0.238,0.361-0.384,0.669-0.47,0.889  c-0.086,0.221-0.114,0.349-0.114,0.349c0.671,0.534,1.59,0.542,2.369,0.506c0.378-0.038,0.737-0.071,0.988-0.117  c0.109-0.019,0.2-0.038,0.269-0.054c-0.248,0.073-0.445,0.213-0.583,0.344c-0.08,0.076-0.142,0.147-0.18,0.204  c-0.041,0.058-0.059,0.092-0.059,0.092c0.193,0.247,0.468,0.403,0.761,0.488c0.146,0.044,0.297,0.07,0.446,0.084  c0.076,0.008,0.151,0.01,0.228,0.014c0.075,0.006,0.151,0.009,0.225,0.008c0.294,0.005,0.565-0.027,0.761-0.06  c0.202-0.021,0.33-0.046,0.33-0.046c-0.138,0.032-0.257,0.066-0.357,0.114c-0.1,0.048-0.181,0.1-0.251,0.153  c-0.138,0.105-0.22,0.219-0.27,0.324c-0.095,0.205-0.059,0.374-0.059,0.374c0.752,0.524,1.619,0.452,2.375,0.309  c0.165-0.031,0.313-0.077,0.459-0.118c-0.028,0.036-0.061,0.069-0.083,0.107c-0.121,0.198-0.165,0.416-0.225,0.636  c-0.088,0.323-0.239,1.275-0.581,1.382c0.608,0.012,1.125,0.064,1.719-0.16c0.377-0.143,0.711-0.368,1.021-0.623  c0.295-0.243,0.677-0.479,0.928-0.756c-0.528,0.363-0.399,1.393-0.635,1.916c0.767-0.158,1.663,0.232,2.415-0.036  c-0.071,0.187-0.105,0.451-0.25,0.604c0.445-0.067,0.922-0.091,1.369-0.227c0.293-0.09,0.829-0.278,0.973-0.568  c-0.031,0.279,0.117,0.495,0.285,0.695c0.039-0.386,0.754-0.61,1.042-0.752c0.556-0.271,1.112-0.553,1.596-0.948  c0.167-0.136,0.307-0.308,0.434-0.491c0.113-0.073,0.225-0.146,0.316-0.205c-0.208,0.195-0.301,0.402-0.343,0.581  c-0.06,0.27,0.006,0.473,0.006,0.473s0.31,0.038,0.842-0.245c0.267-0.136,0.59-0.351,0.967-0.69c0.373-0.329,0.801-0.783,1.277-1.4  c0.477-0.615,1.099-1.03,1.767-1.288c0.667-0.259,1.382-0.37,2.033-0.386c0.65-0.019,1.238,0.05,1.661,0.129  c0.21,0.04,0.381,0.078,0.499,0.111c0.116,0.03,1.203,0.17,1.731,0.325c-0.346,0.04-0.709,0.104-1.086,0.203  c-1.052,0.278-2.22,0.826-3.295,1.697c-1.078,0.868-2.031,2.055-2.703,3.409c-0.675,1.357-1.078,2.869-1.177,4.4  c-0.09,1.531,0.122,3.077,0.615,4.559c0.13,0.369,0.272,0.735,0.426,1.099c0.167,0.359,0.351,0.712,0.546,1.065  c0.099,0.173,0.198,0.347,0.306,0.52c0.112,0.17,0.228,0.341,0.345,0.509c0.237,0.338,0.488,0.67,0.753,0.991  c0,0,0.206-0.228,0.348-0.59c0.072-0.184,0.127-0.401,0.132-0.641c0.003-0.12-0.007-0.251-0.035-0.381  c-0.003-0.02-0.014-0.041-0.018-0.062c0.134,0.111,0.28,0.175,0.438,0.255c0.189,0.096,0.839,0.301,0.871,0.527  c0-0.276,0.037-0.542,0.037-0.818c0-0.259,0.061-0.643-0.104-0.864c0.244,0.004,0.464-0.068,0.707-0.075  c-0.072-0.25,0.036-0.555-0.001-0.822c-0.062-0.449-0.317-0.851-0.617-1.188c0.279,0.05,0.559,0.061,0.841,0.072  c0.221,0.01,0.512,0.009,0.711,0.118c0.03-0.698-0.675-1.25-1.114-1.677c0.531,0.08,0.941-0.313,1.35-0.606  c-0.235,0.009-0.496-0.551-0.623-0.712c-0.002-0.003-0.005-0.005-0.007-0.008c0.283-0.007,0.59-0.037,0.817-0.149  c-0.722-0.433-0.6-1.36-0.764-2.085c-0.091-0.401-0.229-0.762-0.415-1.122c0.115,0.091,0.23,0.182,0.355,0.26  c0.749,0.466,1.647,0.483,2.417,0.878c0.018-0.395-0.131-0.961-0.394-1.262c0.189,0.162,0.457,0.132,0.655,0.284  c-0.121-0.219-0.108-0.501-0.18-0.745c-0.104-0.357-0.296-0.616-0.475-0.915c0.18,0.186,0.454,0.124,0.618,0.34  c-0.065-0.133,0.042-0.213,0.09-0.327c0.081-0.193,0.073-0.396,0.091-0.601c0.032-0.372-0.013-0.697-0.092-1.058  c0.159,0.153,0.397,0.227,0.601,0.304c-0.155-0.212-0.073-0.362,0.042-0.562c0.19-0.329,0.286-0.599,0.326-0.977  c0.021-0.2,0.033-0.403,0.022-0.605c-0.011-0.211-0.098-0.4-0.128-0.609c-0.036-0.245-0.012-0.44,0.043-0.632  c0.003-0.004,0.005-0.007,0.008-0.011c0.198-0.197,0.505-0.36,0.933-0.44c0.074-0.012,1.935,0.66,4.087,1.983  c0.447,2.583,0.74,4.814,0.927,6.485c0.188,1.945,0.574,7.34-0.436,11.061l0.005-0.001c-0.417,1.283-0.704,2.665-0.848,4.143  c-0.382,3.918,0.331,7.06,0.362,7.19l0.006-0.001c0.129,0.725,0.297,1.706,0.479,2.847l-1.062-2.287c0,0-3.446-7.557-12.679-4.928  c-0.298,0.038-0.603,0.044-0.894,0.063c0.25,0.255,0.423,0.523,0.714,0.742c0.256,0.192,0.553,0.365,0.856,0.437  c-0.661,0.001-1.337-0.057-1.975,0.137c-0.444,0.136-0.875,0.324-1.298,0.511c-0.358,0.158-0.88,0.39-1.275,0.27  c0.248,0.2,0.442,0.433,0.713,0.614c0.271,0.183,0.594,0.435,0.907,0.533c-0.609,0.02-1.124,0.474-1.443,0.96  c-0.102,0.155-0.177,0.312-0.243,0.471c-0.076,0.122-0.137,0.251-0.172,0.391c-0.362,1.446-1.039,1.854-1.039,1.854  s0.953,0.951,2.704,0.395c-0.081,0.163-0.149,0.33-0.205,0.521c-0.065,0.223-0.167,0.697-0.381,0.782  c0.458,0.058,0.849,0.211,1.333,0.185c0.542-0.03,1.09-0.25,1.56-0.501c0.239-0.127,0.503-0.258,0.721-0.42  c0.198-0.147,0.355-0.325,0.509-0.507c-0.127,0.374-0.304,1.025-0.655,1.244c0.664-0.015,1.314-0.016,1.962-0.144  c-0.547,0.515-1.207,1.348-1.305,2.454c0,0,1.527,0.332,3.062-0.739c0,0-0.471,0.931-0.263,1.221c0,0,1.413-0.51,2.205-1.232  c-0.019,0.14-0.04,0.277,0.025,0.438c0.136,0.332,0.258,0.591,0.229,0.964c0.003-0.094,0.384-0.232,0.491-0.3  c0.354-0.225,0.697-0.448,1.011-0.732c0.288-0.261,0.559-0.531,0.828-0.811c0.167-0.173,0.431-0.431,0.504-0.665  c-0.025,0.153,0.237,0.482,0.316,0.622c-0.022-0.224,0.164-0.313,0.336-0.414c0.321-0.188,0.671-0.391,0.895-0.699  c0.242-0.333,0.445-0.716,0.615-1.094c0.051-0.114,0.112-0.219,0.181-0.318c0.68-0.522,1.328,0.389,1.592,0.848  c0.025,0.069,0.065,0.147,0.125,0.238c0.404,0.595,0.766,1.688,0.959,2.325c0.065,0.522,0.144,1.062,0.222,1.601  c0,0,0.877,5.041,0.491,8.045h0.47L54.282,100l-0.584-5.282l-0.001,0.006c-0.178-1.878-0.448-3.872-0.731-5.696  c0.327-0.714,0.827-1.89,0.99-2.103c0,0,0.126-0.19,0.369-0.501s0.622-0.717,1.147-1.08c0.521-0.364,1.186-0.684,1.972-0.825  c0.396-0.069,0.817-0.098,1.272-0.061c0.451,0.034,0.933,0.13,1.439,0.303c0.076,0.024,0.152,0.023,0.229,0.039  c0.019,0.008,0.034,0.024,0.053,0.031c0.458,0.176,0.947,0.174,1.422,0.093c0.443-0.075,1.051-0.241,1.41-0.529  c0.288-0.23,0.633-0.546,1.041-0.427c-0.07-0.318-0.302-0.695-0.638-0.777c0.318,0.123,0.79,0.001,1.097-0.132  c0.247-0.106,0.602-0.338,0.873-0.205c-0.117-0.465-0.53-0.776-0.954-0.881c0.37-0.021,0.776-0.194,1.074-0.41  c0.138-0.1,0.255-0.216,0.362-0.348c0.063-0.076,0.135-0.2,0.229-0.231c-0.214,0.104-0.601-0.024-0.818-0.089  c-0.2-0.061-0.404-0.196-0.608-0.224c0.491,0.13,1.163-0.031,1.637-0.187c0.341-0.111,0.748-0.484,1.11-0.469  c-0.214-0.121-0.441-0.407-0.7-0.496c0.259-0.065,0.483-0.046,0.727-0.207c0.133-0.089,0.255-0.184,0.366-0.297  c0.069-0.07,0.122-0.175,0.195-0.235c-0.458,0.009-0.769-0.26-1.164-0.452c-0.158-0.077-0.311-0.171-0.475-0.234  c0.155-0.001,0.299-0.013,0.432-0.033c0.287-0.039,0.522-0.13,0.713-0.229c0.382-0.179,0.584-0.425,0.584-0.425  c-0.117-0.361-0.362-0.483-0.582-0.517c-0.221-0.031-0.414,0.025-0.414,0.025c0.764-0.41,1.173-0.793,1.396-1.104  c0.226-0.296,0.255-0.515,0.255-0.515c-0.242-0.084-0.496-0.108-0.686-0.087c-0.188,0.018-0.318,0.054-0.318,0.054  c0.247-0.116,0.473-0.247,0.683-0.362c0.21-0.124,0.401-0.257,0.575-0.39c0.178-0.124,0.34-0.254,0.486-0.385  c0.147-0.127,0.277-0.264,0.397-0.375c0.235-0.234,0.415-0.449,0.534-0.611c0.119-0.155,0.178-0.256,0.178-0.256  c-0.378-0.58-1.216-0.815-1.955-0.817c-0.375-0.018-0.709,0.036-0.959,0.073c-0.109,0.019-0.197,0.034-0.264,0.05  c0.244-0.066,0.445-0.188,0.59-0.299c0.088-0.068,0.156-0.135,0.202-0.18c0.048-0.044,0.073-0.074,0.073-0.074  c-0.161-0.228-0.414-0.346-0.717-0.411c-0.15-0.03-0.311-0.046-0.476-0.05c-0.081-0.002-0.165-0.002-0.246,0.005  c-0.07,0.004-0.141,0.013-0.209,0.022c0.062-0.094,0.141-0.173,0.187-0.281c0.12-0.284,0.162-0.565,0.169-0.87  c-0.18,0.237-0.729,0.105-0.974,0.077c-0.322-0.038-0.655-0.047-0.98-0.031c-0.36,0.017-0.756,0.027-1.105,0.125  c-0.143,0.039-0.568,0.196-0.582,0.366c0.023-0.317-0.033-0.653-0.063-0.968c-0.013-0.139-0.021-0.267-0.047-0.402  c-0.018-0.095-0.073-0.212-0.062-0.308c-0.004,0.191-0.359,0.35-0.504,0.433c-0.229,0.134-0.449,0.279-0.672,0.426  c-0.566,0.373-1.095,0.717-1.5,1.277c-0.313,0.434-0.465,0.917-0.699,1.387c-0.088,0.177-0.213,0.339-0.35,0.49  c0.022-0.08,0.059-0.171,0.071-0.243c0.151-0.875-0.382-1.5-0.382-1.5c-0.359,0.194-0.661,0.44-1.035,0.694  c-0.277,0.197-0.508,0.415-0.691,0.613c-0.185,0.2-0.312,0.389-0.398,0.523c-0.088,0.135-0.129,0.22-0.129,0.22  c0.131-0.278,0.121-0.457,0.079-0.565c-0.043-0.106-0.118-0.147-0.118-0.147c-0.368,0.271-0.658,0.569-0.87,0.87  s-0.364,0.593-0.46,0.858c-0.068,0.182-0.116,0.349-0.145,0.486c-0.014-0.052-0.033-0.094-0.057-0.13  c-0.076-0.104-0.18-0.144-0.18-0.144c-0.072,0.099-0.137,0.205-0.199,0.314c-0.062,0.108-0.119,0.222-0.172,0.336  c-0.109,0.229-0.207,0.465-0.289,0.702c-0.158,0.48-0.273,0.956-0.342,1.388c-0.062,0.395-0.102,0.737-0.115,1.001  c-0.029-0.259-0.127-0.428-0.232-0.534c-0.168-0.165-0.358-0.186-0.358-0.186s-0.216,0.271-0.309,0.853  c-0.043,0.294-0.053,0.664,0.017,1.11c0.074,0.45,0.223,0.979,0.502,1.583c0.143,0.304,0.232,0.617,0.284,0.93  c0.054,0.313,0.073,0.631,0.063,0.943c-0.016,0.622-0.139,1.228-0.284,1.762c-0.147,0.536-0.321,1-0.454,1.333  c-0.07,0.165-0.127,0.299-0.168,0.39c-0.041,0.09-0.066,0.142-0.066,0.142s-0.237,0.397-0.559,0.95  c-0.44-2.638-0.855-4.655-0.948-4.943c-0.124-0.917-0.249-2.238-0.219-3.78l0.07-1.436c0.009-0.11,0.02-0.225,0.03-0.338  c0.487-4.998,2.535-8.723,6.087-11.066c3.561-2.353,7.417-3.188,11.46-2.488c1.344,0.234,2.486,0.608,3.345,0.953  c0,0,0.288,0.151,0.731,0.315c0.626,0.29,1.043,0.425,1.043,0.425c0.437,0.195,0.863,0.417,1.164,0.644  c0.092,0.068,0.173,0.114,0.246,0.146c0.517,0.334,1.962,1.001,0.688,1.911c-1.195,0.808-1.886,1.784-1.886,1.784  c0.349,0.188,0.646,0.28,0.894,0.314c-1.596,0.579-3.322,2.777-3.322,2.777c0.394,0.484,1.135,0.326,1.483,0.217  c-1.077,0.492-1.999,2.722-1.999,2.722c0.3,0.239,1.326-0.215,1.326-0.215c-1.233,1.589-0.963,3.247-0.963,3.247  c0.79-0.029,1.462-0.331,1.997-0.694c-0.031,0.117-0.056,0.215-0.06,0.262c-0.035,0.382,0.046,0.795-0.141,1.144  c0.379-0.091,0.787-0.036,1.178-0.155c0.262-0.08,0.512-0.202,0.754-0.342c-0.295,0.399-0.73,0.691-1.001,1.142  c-0.44,0.733-0.388,1.482-0.337,1.926c0.014,0.309,0.084,0.504,0.084,0.504c0.85,0.388,1.605-0.602,1.605-0.602  c-1.372,2.346-0.111,3.737-0.111,3.737s0.328-0.468,1.3-0.809c0.315-0.061,0.649-0.078,0.955-0.188  c0.393-0.142,0.753-0.295,1.076-0.555c0.235-0.189,0.697-0.557,0.68-0.895c0.267,0.424,0.593,0.688,0.985,1.002  c0.008-0.188,0.378-0.514,0.492-0.679c0.198-0.284,0.367-0.585,0.517-0.895c0.293-0.608,0.467-1.335,0.467-2.007  c0.196,0.269,0.748,0.668,0.46,1.139c0.064-0.126,0.351-0.208,0.483-0.296c0.21-0.139,0.386-0.323,0.527-0.532  C84.283,80.251,85.109,78.787,84.512,75.186z"></path></svg>