<svg fill="#5B310C" xmlns:dc="http://purl.org/dc/elements/1.1/" xmlns:cc="http://creativecommons.org/ns#" xmlns:rdf="http://www.w3.org/1999/02/22-rdf-syntax-ns#" xmlns:svg="http://www.w3.org/2000/svg" xmlns="http://www.w3.org/2000/svg" xmlns:sodipodi="http://sodipodi.sourceforge.net/DTD/sodipodi-0.dtd" xmlns:inkscape="http://www.inkscape.org/namespaces/inkscape" viewBox="0 0 643.77207 672.25601" version="1.1" x="0px" y="0px"><g transform="translate(-142.206,-46.477999)"><path style="" d="m 352.271,46.477999 c -1.115,0 -2.276,0.243 -3.394,0.243 -1.179,3.723 -2.451,7.831 -3.879,12.485 -5.524,19.488 -13.324,47.508001 -18.91,81.456001 -2.791,17.005 -5.063,35.544 -6.181,55.031 -0.744,19.426 -1.27,39.882 1.213,60.486 1.365,10.178 2.17,20.617 5.211,30.546 l 3.758,15.274 5.819,14.303 c 3.103,9.93 9.28,18.218 14.182,27.031 5.214,8.75 13.069,15.332 19.152,23.152 l 12.969,14.788 c 3.848,4.655 7.67,8.023 11.394,14.788 7.261,12.04 15.725,24.75 19.759,36.728 l 7.272,18.303 c 1.552,6.207 3.117,12.402 4.607,18.547 3.599,12.35 4.214,24.504 5.455,36.606 1.428,24.142 -0.515,47.022 -4.364,68.123 -1.801,10.488 -4.436,20.439 -6.546,30.183 -2.607,9.557 -5.695,18.705 -8.364,27.394 -13.467,39.036 -29.486,67.461 -41.091,85.335 107.553,-14.709 192.003,-158.912 192.003,-334.795 0,-185.565 -94.01,-336.007001 -210.065,-336.007001 z m -12.969,1.092 C 229.39,58.367999 142.206,204.054 142.206,382.606 c 0,185.627 94.072,336.066 210.065,336.128 0.498,-4.22 1.314,-9.081 2.182,-14.667 1.428,-10.054 3.286,-22.217 5.334,-36.243 2.11,-13.901 3.891,-29.547 5.939,-46.304 1.737,-16.819 3.309,-34.893 4.364,-53.698 0.373,-18.805 1.062,-38.266 -0.243,-57.941 -0.62,-9.743 -0.807,-19.773 -2.545,-29.454 l -1.94,-14.789 -3.636,-14.303 c -1.923,-10.488 -6.288,-17.373 -9.455,-26.062 -2.791,-7.819 -13.926,-20.463 -17.09,-26.545 -7.633,-11.047 -16.532,-21.241 -22.304,-32.971 -5.524,-11.915 -11.996,-23.345 -14.787,-35.758 l -5.214,-18.303 c -0.93,-6.082 -1.856,-12.1 -2.788,-18.182 -2.357,-11.978 -2.353,-23.79 -2.787,-35.395 -0.373,-23.087 1.798,-45.159 5.213,-65.577 3.66,-20.419 8.367,-39.236 13.332,-56.365 10.116,-34.258 21.072,-61.681001 29.7,-80.486001 1.364,-3.103 2.515,-5.515 3.756,-8.121 z M 642.823,259.331 c -0.744,0 -1.438,0.122 -2.183,0.122 -0.807,2.483 -1.612,5.379 -2.544,8.606 -3.786,13.344 -9.122,32.305 -12.971,55.516 -1.86,11.668 -3.436,24.296 -4.243,37.577 -0.496,13.219 -0.825,27.128 0.848,41.092 0.932,6.951 1.527,14.084 3.638,20.849 l 2.546,10.424 3.879,9.697 c 2.109,6.827 6.344,12.405 9.697,18.425 3.537,5.958 8.873,10.421 12.969,15.758 l 8.728,10.061 c 2.606,3.165 5.335,5.468 7.879,10.061 4.965,8.254 10.664,16.96 13.333,25.091 l 4.971,12.363 c 1.055,4.221 2.216,8.57 3.271,12.728 2.483,8.441 2.77,16.657 3.638,24.849 0.993,16.384 -0.303,31.968 -2.909,46.304 -1.242,7.199 -3.058,14.028 -4.486,20.607 -1.736,6.516 -3.955,12.709 -5.817,18.667 -9.186,26.624 -20.057,46.019 -28.001,58.183 73.294,-9.992 130.912,-108.163 130.912,-228.005 0.07,-126.482 -64.151,-228.974 -143.155,-228.974 z m -8.969,0.606 c -25.135,2.483 -48.742,15.45 -68.851,36.365 4.656,27.555 7.031,56.452 7.031,86.304 0,85.335 -19.12,163.196 -51.517,223.52 24.763,66.592 70.173,111.154 122.306,111.154 0.373,-2.917 0.834,-6.216 1.455,-9.94 0.993,-6.826 2.27,-15.17 3.635,-24.728 1.366,-9.433 2.757,-20.158 4.123,-31.515 1.179,-11.544 2.35,-23.761 2.909,-36.607 0.186,-12.909 0.874,-26.294 -0.243,-39.637 -0.373,-6.641 -0.639,-13.481 -1.818,-20.122 l -1.091,-10.061 -2.546,-9.575 c -1.365,-7.262 -4.373,-11.923 -6.546,-17.819 -1.924,-5.213 -9.465,-13.965 -11.637,-18.061 -5.088,-7.448 -11.362,-14.419 -15.272,-22.425 -3.662,-8.254 -8.203,-16.107 -9.939,-24.485 l -3.636,-12.243 c -0.559,-4.283 -1.199,-8.451 -1.82,-12.485 -1.737,-8.254 -1.566,-16.302 -1.939,-24.122 -0.186,-15.826 1.278,-30.767 3.638,-44.607 2.544,-13.902 5.553,-26.878 9.09,-38.546 6.827,-23.211 14.288,-41.942 20.121,-54.789 0.994,-1.986 1.74,-3.838 2.547,-5.576 z" fill="#5B310C"></path></g></svg>