<svg fill="#595D60" xmlns="http://www.w3.org/2000/svg" xmlns:xlink="http://www.w3.org/1999/xlink" version="1.0" x="0px" y="0px" viewBox="0 0 100 100" enable-background="new 0 0 100 100" xml:space="preserve"><g display="none"><circle display="inline" fill="#595D60" stroke="#595D60" stroke-width="0.1" stroke-miterlimit="10" cx="49.875" cy="50" r="45"></circle><circle display="inline" fill="#595D60" stroke="#595D60" stroke-width="0.1" stroke-miterlimit="10" cx="49.875" cy="50" r="25"></circle></g><path d="M75.997,58.635c-0.86-0.459-1.7-0.769-2.522-0.967c1.168-3.794,2.041-8.523,2.598-14.76  C77.861,22.825,64.21,10.33,50.152,10.33S22.135,22.825,23.926,42.908c0.563,6.31,1.439,11.076,2.613,14.893  c-0.667,0.199-1.345,0.465-2.036,0.834c-6.259,3.34-5.993,9.934-2.543,16.398c3.034,5.688,7.521,9.376,12.816,7.912  c4.043,3.082,9.696,4.904,15.366,4.904c5.159,0,11.274-1.813,15.661-4.877c5.262,1.404,9.719-2.279,12.737-7.939  C81.99,68.566,82.256,61.975,75.997,58.635z M33.741,79.568c-1.807,0.965-6.571-1.555-9.165-6.416  c-2.594-4.861-2.033-10.221-0.228-11.187c1.805-0.965,5.375,2.195,7.969,7.056C34.911,73.883,35.548,78.605,33.741,79.568z   M33.3,53.887c-5.167,0-6.334-13.72-2.667-17.887s15.001,3.243,15.167,7.622C45.92,46.777,38.467,53.887,33.3,53.887z   M44.667,64.592c0-3.172,2.333-5.783,5.333-6.172v3.751c-1,0.334-1.663,1.285-1.663,2.421c0,0.338,0.176,0.657,0.294,0.951  l-3.045,2.203C45.04,66.82,44.667,65.745,44.667,64.592z M51,70.816c-1.719,0-3.275-0.696-4.402-1.823l3.046-2.243  c0.394,0.248,0.856,0.396,1.356,0.396s0.963-0.148,1.355-0.396l3.047,2.243C54.275,70.12,52.719,70.816,51,70.816z M56.387,67.746  l-2.965-2.203c0.118-0.294,0.24-0.613,0.24-0.951c0-1.136-0.662-2.087-1.662-2.421V58.42c3,0.389,5.346,3,5.346,6.172  C57.346,65.744,56.934,66.82,56.387,67.746z M54.5,43.622C54.666,39.243,66,31.833,69.667,36s2.5,17.887-2.667,17.887  S54.38,46.777,54.5,43.622z M75.924,73.152c-2.594,4.861-7.357,7.381-9.165,6.416c-1.807-0.963-1.17-5.687,1.425-10.547  c2.594-4.859,6.162-8.021,7.969-7.056C77.958,62.932,78.518,68.291,75.924,73.152z"></path></svg>