<svg fill="#FFFFFF" xmlns="http://www.w3.org/2000/svg" xmlns:xlink="http://www.w3.org/1999/xlink" version="1.1" x="0px" y="0px" viewBox="0 0 100 100" enable-background="new 0 0 100 100" xml:space="preserve"><g><path fill="#FFFFFF" d="M-152.886,35.764c-3.792-9.011-12.604-14.96-23.578-15.911c-9.742-0.846-16.758,6.344-18.404,13.534   c-1.835,8.003,2.196,16.841,2.371,17.208c0.322,0.693,0.988,1.105,1.705,1.132c0.303,0.02,0.613-0.039,0.904-0.175   c0.982-0.45,1.408-1.622,0.956-2.604c-0.038-0.077-3.637-8.01-2.106-14.683c1.092-4.78,6.234-11.195,14.238-10.504   c9.489,0.827,17.08,5.879,20.29,13.527c2.384,5.665,1.72,11.595-1.789,15.854c-9.47,11.504-12.784,18.655-16.628,26.932   c-2.842,6.137-7.268,6.336-10.472,5.42c-0.872-0.279-6.686-4.891-4.237-14.412c0.271-1.055-0.361-2.127-1.415-2.398   c-0.136-0.031-0.277-0.051-0.413-0.051c-0.904-0.039-1.744,0.555-1.977,1.467c-2.895,11.246,3.805,18.269,6.957,19.166   c0.938,0.271,2.28,0.549,3.831,0.549c3.578,0,8.229-1.491,11.292-8.088c3.727-8.035,6.944-14.967,16.098-26.092   C-150.817,50.234-149.927,42.806-152.886,35.764z"></path><path fill="#FFFFFF" d="M-165.947,54.453c0.29,0.154,0.607,0.232,0.917,0.232c0.705,0,1.383-0.381,1.738-1.047   c0.168-0.316,4.062-7.791,1.608-14.968c-1.351-3.966-4.328-7.009-8.837-9.05c-5.756-2.604-12.08-1.034-15.389,3.818   c-4.844,7.1-0.451,15.581,4.781,20.684c0.775,0.758,2.021,0.744,2.777-0.031s0.743-2.021-0.031-2.777   c-2.953-2.88-4.574-5.64-5.259-8.107c3.003,0.795,7.28,2.417,8.694,4.975c0.614,1.117,0.614,2.312-0.006,3.772   c-1.977,4.657-4.477,7.692-6.338,9.489c-0.684-0.788-1.686-1.278-2.81-1.278c-2.054,0-3.728,1.666-3.728,3.728   c0,2.061,1.674,3.733,3.728,3.733c0.756,0,1.46-0.228,2.048-0.619c0.013-0.008,0.032-0.021,0.064-0.039   c0.717-0.407,6.647-4.051,10.652-13.481c1.086-2.545,1.021-5.04-0.181-7.209c-0.31-0.562-3.21-5.349-12.448-7.197   c0.181-1.317,0.646-2.474,1.299-3.423c2.248-3.301,6.479-4.283,10.522-2.455c3.476,1.57,5.743,3.831,6.737,6.718   c0.434,1.26,0.602,2.564,0.602,3.818c0,4.263-1.932,8.016-1.957,8.068C-167.271,52.762-166.903,53.943-165.947,54.453z"></path></g><g><path fill="#FFFFFF" d="M393.964,51.029c-0.356-0.589-0.998-0.95-1.687-0.95c-0.047,0-4.555-0.023-6.91-1.961   c-2.266-1.864-10.104-8.024-15.859-9.025c-0.505-0.088-1.05-0.133-1.617-0.133c-3.695,0-8.02,1.914-9.904,2.845   c-1.885-0.931-6.207-2.845-9.902-2.845c-0.568,0-1.113,0.044-1.619,0.132c-5.043,0.878-12.085,6.021-15.834,9.006   c-1.924,1.532-5.695,1.949-6.984,1.98c-0.681,0.015-1.306,0.381-1.649,0.967c-0.347,0.588-0.362,1.311-0.044,1.914   C322.45,53.898,334.393,76,357.988,76c23.594,0,35.537-22.102,36.035-23.041C394.343,52.352,394.318,51.619,393.964,51.029z    M357.986,72.074c-16.688,0-27.215-12.855-30.991-18.426c1.925-0.357,4.312-1.066,6.082-2.478c5.88-4.686,11.006-7.678,14.062-8.21   c0.284-0.049,0.602-0.074,0.944-0.074c3.759,0,8.899,2.817,8.951,2.845c0.592,0.329,1.312,0.329,1.903,0   c1.429-0.792,5.817-2.845,8.951-2.845c0.344,0,0.661,0.025,0.944,0.075c3.824,0.666,9.951,4.828,14.037,8.19   c1.793,1.475,4.164,2.188,6.087,2.533C385.173,59.275,374.684,72.074,357.986,72.074z"></path><path fill="#FFFFFF" d="M380.343,52.518c-0.255-0.062-6.302-1.563-10.86-1.563c-2.766,0-5.312,0.987-7.558,1.858   c-1.528,0.593-2.973,1.152-3.938,1.152c-0.965,0-2.408-0.561-3.938-1.152c-2.247-0.871-4.792-1.858-7.558-1.858   c-4.56,0-10.605,1.502-10.86,1.563c-0.689,0.174-1.234,0.709-1.42,1.396c-0.184,0.689,0.02,1.424,0.53,1.92   c0.491,0.477,12.164,11.666,23.245,11.666c11.082,0,22.756-11.189,23.246-11.666c0.513-0.496,0.715-1.23,0.531-1.92   C381.578,53.227,381.034,52.691,380.343,52.518z M357.986,63.572c-6.504,0-13.683-4.916-17.588-8.039   c1.896-0.336,4.182-0.652,6.092-0.652c2.031,0,4.117,0.811,6.138,1.594c1.881,0.729,3.658,1.418,5.358,1.418   c1.699,0,3.478-0.688,5.357-1.418c2.021-0.783,4.107-1.594,6.139-1.594c1.91,0,4.194,0.316,6.091,0.652   C371.669,58.656,364.49,63.572,357.986,63.572z"></path></g><g><path fill="#FFFFFF" d="M68.754,51.827c-0.646-3.778-2.894-16.646-5.121-25.559c-2.399-9.6-6.86-14.267-13.632-14.267   c-6.772,0-11.232,4.667-13.632,14.268c-2.228,8.912-4.477,21.779-5.12,25.56c-3.494,1.635-8.642,5.899-8.642,13.26   c0,3.971,1.147,6.889,3.41,8.672c3.022,2.383,6.953,1.906,9.025,1.406c2.793-0.67,4.846,0.787,7.225,2.473   c2.151,1.521,4.588,3.248,7.733,3.248c3.146,0,5.582-1.727,7.731-3.248c2.381-1.686,4.435-3.143,7.227-2.473   c2.072,0.498,6.003,0.977,9.025-1.406c2.263-1.783,3.41-4.701,3.41-8.672C77.396,57.729,72.247,53.463,68.754,51.827z    M71.552,70.676c-0.553,0.438-1.201,0.69-1.867,0.83c-0.371-0.515-2.059-2.517-5.849-2.517c-4.349,0-6.325,6.853-13.835,6.853   c-7.511,0-9.486-6.853-13.835-6.853c-3.791,0-5.479,2.004-5.848,2.517c-0.665-0.138-1.315-0.394-1.868-0.83   c-1.271-1.002-1.915-2.881-1.915-5.588c0-7.402,6.824-9.9,7.107-10c0.682-0.236,1.182-0.826,1.299-1.537   c0.026-0.16,2.652-15.988,5.237-26.329C42.708,17.1,46.996,15.929,50,15.929s7.292,1.171,9.821,11.293   c2.584,10.341,5.212,26.168,5.238,26.329c0.115,0.705,0.615,1.295,1.291,1.532c0.291,0.104,7.114,2.603,7.114,10.005   C73.467,67.795,72.823,69.674,71.552,70.676z"></path><path fill="#FFFFFF" d="M43.431,41.368c-1.064-0.182-2.083,0.539-2.264,1.607c-0.043,0.252-1.12,9.802-3.04,16.335   c-0.307,1.041,0.288,2.133,1.33,2.438c0.185,0.056,0.37,0.082,0.555,0.082c0.849,0,1.631-0.555,1.883-1.412   c1.986-6.752,2.969-15.747,3.145-16.785C45.221,42.562,44.5,41.549,43.431,41.368z"></path></g><g><path fill="#FFFFFF" d="M-227.636,47.082c-11.893-10.814-24.069-16.299-36.182-16.299c-20.711,0-33.643,15.846-34.18,16.525   c-0.633,0.787-0.562,1.924,0.155,2.629c10.33,10.143,21.725,15.277,33.87,15.277c20.568,0,35.755-14.649,36.388-15.277   c0.388-0.381,0.601-0.898,0.588-1.441C-227.002,47.961-227.234,47.443-227.636,47.082z M-263.972,61.287   c-10.557,0-20.562-4.322-29.762-12.861c3.502-3.682,14.457-13.715,29.916-13.715c10.562,0,21.285,4.651,31.898,13.825   C-236.188,52.107-248.649,61.287-263.972,61.287z"></path><path fill="#FFFFFF" d="M-275.781,48c0,6.596,5.349,11.943,11.944,11.943c6.595,0,11.945-5.349,11.945-11.943   s-5.35-11.946-11.945-11.946C-270.432,36.054-275.781,41.404-275.781,48z M-266.976,52.418c0,0.982-0.795,1.777-1.777,1.777   c-0.49,0-0.937-0.201-1.26-0.523c-0.322-0.316-0.523-0.764-0.523-1.254v-0.182c0-0.98,0.802-1.775,1.783-1.775   c0.491,0,0.938,0.199,1.254,0.523c0.322,0.315,0.523,0.762,0.523,1.252V52.418L-266.976,52.418z M-261.589,44.576   c0.704,0,1.338,0.283,1.803,0.748c0.458,0.459,0.743,1.1,0.743,1.803v0.26c0,1.406-1.138,2.545-2.546,2.545   c-0.704,0-1.344-0.285-1.802-0.744c-0.466-0.465-0.75-1.098-0.75-1.801v-0.26C-264.141,45.719-262.996,44.576-261.589,44.576z"></path></g><g><path fill="#FFFFFF" d="M-96.75,93.156c-0.577,0-1.147-0.252-1.535-0.737c-4.485-5.606-10.421-13.864-10.185-20.806   c0.248-7.269-0.119-18.338-0.884-20.416c-0.827-2.246-0.875-4.244-0.139-5.777c0.517-1.075,1.384-1.841,2.508-2.216   c1.468-0.49,3.395-0.13,5.026,0.937c1.302,0.852,3.545,2.92,3.934,7.204c0.099,1.08-0.698,2.035-1.777,2.134   c-1.08,0.1-2.036-0.697-2.134-1.777c-0.223-2.449-1.265-3.649-2.099-4.224c-0.809-0.556-1.54-0.595-1.713-0.545   c-0.09,0.03-0.146,0.066-0.206,0.189c-0.188,0.39-0.225,1.336,0.284,2.719c1.291,3.503,1.276,17.484,1.125,21.908   c-0.143,4.174,2.995,10.305,9.327,18.218c0.678,0.847,0.54,2.083-0.307,2.761C-95.887,93.016-96.32,93.156-96.75,93.156z"></path><path fill="#FFFFFF" d="M-100.662,70.703c-0.036,0-0.072,0-0.108-0.002c-1.083-0.061-1.913-0.985-1.854-2.068   c0.015-0.268,1.452-26.86,0.625-33.061c-0.79-5.928-1.144-11.843,1.591-14.967c1.165-1.33,2.801-2.033,4.731-2.033   c7.096,0,7.2,8.861,7.292,16.68c0.012,1.036,0.024,2.074,0.051,3.094c0.211,8.167,0.706,13.883,0.71,13.94   c0.094,1.08-0.705,2.032-1.785,2.127c-1.079,0.096-2.033-0.704-2.128-1.784c-0.005-0.059-0.51-5.896-0.724-14.181   c-0.027-1.038-0.04-2.095-0.052-3.149c-0.088-7.494-0.381-12.799-3.365-12.799c-1.036,0-1.494,0.37-1.776,0.693   c-1.939,2.215-1.004,9.222-0.653,11.86c0.875,6.563-0.536,32.687-0.597,33.795C-98.76,69.893-99.626,70.703-100.662,70.703z"></path><path fill="#FFFFFF" d="M-80.398,57.074c-1.059,0-1.933-0.844-1.962-1.909c-0.229-8.182-1.853-14.01-2.913-14.587   c-2.004-0.467-2.869,1.277-3.086,1.823c-0.397,1-1.531,1.504-2.535,1.117s-1.514-1.501-1.137-2.509   c0.719-1.926,3.255-5.289,7.711-4.236c2.599,0.614,4.189,3.754,5.157,10.182c0.611,4.062,0.725,7.938,0.73,8.104   c0.029,1.082-0.824,1.985-1.908,2.017C-80.361,57.074-80.379,57.074-80.398,57.074z"></path><path fill="#FFFFFF" d="M-71.789,59.585c-1.084,0-1.964-0.88-1.964-1.964c0-4.803-2.233-12.041-3.585-12.743   c-1.784,0.202-2.517,1.129-2.522,1.139c-0.588,0.912-1.803,1.174-2.714,0.586c-0.912-0.587-1.175-1.803-0.588-2.714   c0.168-0.26,1.747-2.551,5.51-2.927c0.758-0.076,1.907,0.053,3.066,1.103c3.297,2.983,4.761,12.458,4.761,15.556   C-69.825,58.705-70.705,59.585-71.789,59.585z"></path><path fill="#FFFFFF" d="M-68.452,91.257c-0.149,0-0.3-0.018-0.451-0.053c-1.056-0.248-1.71-1.306-1.462-2.36   c0.018-0.078,1.825-7.783,2.665-12.755c0.246-1.455,0.548-2.964,0.841-4.423c0.686-3.42,1.395-6.957,1.1-8.604   c-0.541-3.021-3.02-11.153-4.307-12.688c-0.508-0.605-1.961,0.331-1.976,0.34c-0.884,0.626-2.11,0.418-2.737-0.466   c-0.627-0.885-0.418-2.111,0.466-2.738c2.105-1.492,5.274-2.022,7.257,0.34c2.246,2.678,4.771,12.336,5.162,14.518   c0.428,2.381-0.286,5.943-1.113,10.07c-0.287,1.431-0.583,2.908-0.819,4.305c-0.86,5.097-2.64,12.679-2.715,12.999   C-66.754,90.646-67.561,91.257-68.452,91.257z"></path><path fill="#FFFFFF" d="M-103.859,16.874c-0.642,0-1.271-0.314-1.647-0.893c-1.179-1.809-3.504-5.033-4.724-5.981   c-0.856-0.666-1.01-1.9-0.345-2.756c0.667-0.856,1.9-1.011,2.756-0.345c2.136,1.662,5.255,6.403,5.604,6.938   c0.592,0.909,0.335,2.126-0.574,2.717C-103.12,16.771-103.492,16.874-103.859,16.874z"></path><path fill="#FFFFFF" d="M-96.294,15.746c-1.048,0-1.918-0.828-1.961-1.885l-0.31-7.688c-0.043-1.083,0.8-1.997,1.883-2.041   c1.102-0.038,1.998,0.799,2.042,1.883l0.31,7.688c0.044,1.084-0.799,1.998-1.883,2.042C-96.241,15.745-96.268,15.746-96.294,15.746   z"></path><path fill="#FFFFFF" d="M-89.906,17.792c-0.284,0-0.572-0.062-0.845-0.193c-0.979-0.467-1.393-1.639-0.926-2.617   c0.292-0.611,2.938-6.035,6.04-8.373c0.867-0.654,2.098-0.48,2.75,0.386c0.653,0.866,0.48,2.097-0.386,2.75   c-1.981,1.494-4.181,5.509-4.86,6.93C-88.47,17.38-89.173,17.792-89.906,17.792z"></path></g><g><g><path fill="#FFFFFF" d="M-88.37-282.523c0,0-6.105-13.169-3.467-24.685c2.076-9.049,11.352-19.809,25.264-18.605    c31.616,2.736,44.87,33.258,30.734,50.435c-14.137,17.176-19.194,27.815-25.329,41.04c-6.136,13.224-16.623,10.943-19.815,10.031    c-3.191-0.912-12.768-10.031-8.664-25.991"></path><path fill="#FFFFFF" stroke="#FFFFFF" stroke-width="6.08" stroke-linecap="round" stroke-linejoin="bevel" d="M-88.37-282.523    c0,0-6.105-13.169-3.467-24.685c2.076-9.049,11.352-19.809,25.264-18.605c31.616,2.736,44.87,33.258,30.734,50.435    c-14.137,17.176-19.194,27.815-25.329,41.04c-6.136,13.224-16.623,10.943-19.815,10.031c-3.191-0.912-12.768-10.031-8.664-25.991"></path><path fill="#FFFFFF" stroke="#FFFFFF" stroke-width="6.08" stroke-linecap="round" stroke-linejoin="bevel" d="M-48.606-277.963    c0,0,12.221-23.043-9.759-32.984c-17.055-7.714-33.919,12.616-13.042,32.984"></path><path fill="#FFFFFF" stroke="#FFFFFF" stroke-width="6.08" stroke-linecap="round" stroke-linejoin="bevel" d="M-80.436-296.446    c0,0,25.404,4.043,19.269,18.482c-6.135,14.44-15.255,19.456-15.255,19.456"></path><path fill="#FFFFFF" d="M-78.125-254.89c3.19,0,5.776-2.586,5.776-5.776c0-3.189-2.586-5.775-5.776-5.775    c-3.189,0-5.775,2.586-5.775,5.775C-83.901-257.476-81.315-254.89-78.125-254.89"></path></g></g><g><path fill="#FFFFFF" stroke="#FFFFFF" stroke-width="6.08" stroke-linecap="round" stroke-linejoin="round" d="M284.736-244.961   c-35.112,0-53.096-34.048-53.096-34.048s8.182-0.175,12.642-3.729c6.229-4.962,16.312-12.136,23.14-13.324   c6.826-1.189,17.314,4.625,17.314,4.625s10.488-5.814,17.313-4.625c6.827,1.188,16.99,8.265,23.14,13.324   c4.584,3.771,12.642,3.729,12.642,3.729S319.85-244.961,284.736-244.961z"></path><path fill="#FFFFFF" stroke="#FFFFFF" stroke-width="6.08" stroke-linecap="round" stroke-linejoin="round" d="M284.736-272.993   c-4.571,0-11.032-4.662-17.797-4.662c-6.764,0-16.072,2.331-16.072,2.331s17.748,17.202,33.869,17.202s33.869-17.202,33.869-17.202   s-9.311-2.331-16.073-2.331S289.309-272.993,284.736-272.993z"></path></g><g><path fill="#FFFFFF" d="M195.971-266.401c-0.996-5.852-4.478-25.769-7.926-39.564c-3.715-14.862-10.618-22.087-21.104-22.087   c-10.484,0-17.387,7.225-21.103,22.087c-3.448,13.796-6.929,33.713-7.926,39.564c-5.409,2.53-13.377,9.135-13.377,20.527   c0,6.146,1.776,10.662,5.278,13.424c4.68,3.688,10.763,2.949,13.972,2.178c4.323-1.037,7.502,1.217,11.185,3.825   c3.329,2.357,7.103,5.029,11.971,5.029c4.869,0,8.643-2.672,11.972-5.029c3.683-2.609,6.862-4.862,11.185-3.825   c3.209,0.771,9.293,1.511,13.971-2.178c3.504-2.762,5.279-7.278,5.279-13.424C209.348-257.267,201.38-263.871,195.971-266.401z    M200.305-237.225c-0.857,0.676-1.863,1.071-2.894,1.284c-0.573-0.795-3.185-3.894-9.054-3.894   c-6.729,0-9.789,10.606-21.416,10.606c-11.625,0-14.686-10.606-21.416-10.606c-5.868,0-8.479,3.101-9.053,3.895   c-1.029-0.213-2.035-0.609-2.893-1.285c-1.967-1.551-2.964-4.461-2.964-8.649c0-11.459,10.563-15.328,11.002-15.482   c1.057-0.363,1.829-1.277,2.011-2.379c0.041-0.246,4.105-24.748,8.107-40.756c3.918-15.669,10.555-17.481,15.205-17.481   c4.649,0,11.287,1.812,15.203,17.481c4.002,16.008,8.067,40.51,8.108,40.756c0.181,1.093,0.954,2.005,1.998,2.374   c0.45,0.159,11.015,4.028,11.015,15.487C203.268-241.686,202.271-238.775,200.305-237.225z"></path><path fill="#FFFFFF" d="M162.207-311.896c-1.648-0.281-3.225,0.834-3.505,2.489c-0.066,0.39-6.646,39.102-9.618,49.214   c-0.475,1.61,0.447,3.3,2.059,3.773c0.287,0.085,0.574,0.125,0.858,0.125c1.313,0,2.526-0.858,2.915-2.184   c3.075-10.454,9.508-48.307,9.779-49.913C164.979-310.047,163.861-311.616,162.207-311.896z"></path></g><g><g><path fill="#FFFFFF" d="M-2.2-268.608c0,0,44.035-54.991,104.503,0C102.305-268.608,50.024-217.344-2.2-268.608L-2.2-268.608z"></path><path fill="#FFFFFF" stroke="#FFFFFF" stroke-width="6.08" stroke-linejoin="round" d="M-2.2-268.608c0,0,44.035-54.991,104.503,0    C102.305-268.608,50.024-217.344-2.2-268.608z"></path><path fill="#FFFFFF" d="M48.31-250.946c10.211,0,18.49-8.278,18.49-18.49s-8.278-18.49-18.49-18.49    c-10.212,0-18.49,8.278-18.49,18.49S38.097-250.946,48.31-250.946L48.31-250.946z"></path></g><path fill="#FFFFFF" d="M43.449-262.599c0,1.521-1.232,2.752-2.752,2.752l0,0c-1.521,0-2.752-1.231-2.752-2.752v-0.276   c0-1.52,1.232-2.752,2.752-2.752l0,0c1.52,0,2.752,1.232,2.752,2.752V-262.599z"></path><path fill="#FFFFFF" d="M55.734-270.393c0,2.181-1.768,3.946-3.946,3.946l0,0c-2.18,0-3.947-1.766-3.947-3.946v-0.396   c0-2.179,1.768-3.946,3.947-3.946l0,0c2.18,0,3.946,1.768,3.946,3.946V-270.393z"></path></g><g><path fill="#FFFFFF" stroke="#FFFFFF" stroke-width="6.08" stroke-linecap="round" stroke-linejoin="bevel" d="M-183.409-227.781   c-6.219-7.772-15.436-20.433-15.102-30.205c0.333-9.771,0-28.538-1.555-32.758c-1.554-4.22-0.888-7.551,1.777-8.439   s9.105,1.444,9.883,9.994"></path><path fill="#FFFFFF" stroke="#FFFFFF" stroke-width="6.08" stroke-linecap="round" stroke-linejoin="bevel" d="M-189.464-262.538   c0,0,2.279-41.753,0.946-51.747c-1.333-9.995-2.332-22.875,6.774-22.875s7.995,14.769,8.328,27.649   c0.333,12.882,1.11,21.766,1.11,21.766"></path><path fill="#FFFFFF" stroke="#FFFFFF" stroke-width="6.08" stroke-linecap="round" stroke-linejoin="bevel" d="M-173.254-304.403   c0,0,2.282-6.105,8.39-4.663c6.107,1.443,6.773,25.43,6.773,25.43"></path><path fill="#FFFFFF" stroke="#FFFFFF" stroke-width="6.08" stroke-linecap="round" stroke-linejoin="bevel" d="M-159.815-299.36   c0,0,1.741-2.7,6.276-3.153c5.552-0.556,8.773,17.101,8.773,22.764"></path><path fill="#FFFFFF" stroke="#FFFFFF" stroke-width="6.08" stroke-linecap="round" stroke-linejoin="bevel" d="M-146.915-292.922   c0,0,4.48-3.177,7.146,0c2.665,3.178,6.552,16.726,7.329,21.057c0.777,4.33-1.666,13.326-2.998,21.21   c-1.332,7.884-4.165,19.933-4.165,19.933"></path><path fill="#FFFFFF" stroke="#FFFFFF" stroke-width="6.08" stroke-linecap="round" stroke-linejoin="bevel" d="M-194.414-345.868   c0,0-4.993-7.667-7.993-10"></path><line fill="#FFFFFF" stroke="#FFFFFF" stroke-width="6.08" stroke-linecap="round" stroke-linejoin="bevel" x1="-182.698" y1="-347.614" x2="-183.178" y2="-359.516"></line><path fill="#FFFFFF" stroke="#FFFFFF" stroke-width="6.08" stroke-linecap="round" stroke-linejoin="bevel" d="M-172.809-344.446   c0,0,4.089-8.565,8.437-11.844"></path></g><path d="M40.984,82.844c0.863,0.27,1.369,1.178,1.13,2.06l-1.727,6.419c-0.243,0.904-1.173,1.439-2.079,1.197  c-0.917-0.254-1.441-1.176-1.198-2.08l1.727-6.418c0.244-0.904,1.175-1.44,2.079-1.197C40.939,82.83,40.963,82.837,40.984,82.844z"></path><path d="M33.963,80.888c0.244,0,0.495,0.053,0.729,0.166c0.846,0.403,1.204,1.415,0.8,2.261c-0.251,0.527-2.537,5.213-5.217,7.232  c-0.749,0.564-1.812,0.415-2.375-0.334c-0.565-0.747-0.415-1.811,0.333-2.375c1.712-1.29,3.612-4.759,4.199-5.986  C32.722,81.243,33.331,80.888,33.963,80.888z"></path><path d="M60.51,82.844c-0.863,0.27-1.368,1.178-1.13,2.06l1.727,6.419c0.242,0.904,1.173,1.439,2.078,1.197  c0.918-0.254,1.441-1.176,1.197-2.08l-1.727-6.418c-0.244-0.904-1.174-1.44-2.078-1.197C60.555,82.83,60.531,82.837,60.51,82.844z"></path><path d="M67.53,80.888c-0.244,0-0.494,0.053-0.729,0.166c-0.846,0.403-1.203,1.415-0.799,2.261c0.25,0.527,2.537,5.213,5.217,7.232  c0.748,0.564,1.811,0.415,2.375-0.334c0.564-0.747,0.414-1.811-0.333-2.375c-1.712-1.29-3.612-4.759-4.199-5.986  C68.772,81.243,68.163,80.888,67.53,80.888z"></path></svg>