<?xml version="1.0" encoding="utf-8"?>
<!-- Generator: Adobe Illustrator 21.0.2, SVG Export Plug-In . SVG Version: 6.00 Build 0)  -->
<svg version="1.1" id="Layer_1" xmlns="http://www.w3.org/2000/svg" xmlns:xlink="http://www.w3.org/1999/xlink" x="0px" y="0px"
	 viewBox="0 0 90 90" style="enable-background:new 0 0 90 90;" xml:space="preserve">
<style type="text/css">
	.st0{fill:#C82606;}
</style>
<path class="st0" d="M86.1,68.9c5.2,1.8,3.2,6.6-2,8.1c-5.2,1.5-13,4.4-34.8-4.5S22.4,56.4,16.6,50.8c-5.8-5.6-2.3-12.1,1.4-13.7
	c4.4-1.9,10.6-5.6,13-7.8c2.5-2.2,7.2-5.3,16.5,8.3s11.6,20.9,30.1,28.1C77.6,65.7,80.9,67,86.1,68.9z"/>
<path class="st0" d="M1.7,11.8c0,1.2,0.9,2.1,2.1,2.1s2.1-1,2.1-2.1c0-0.1,0-0.1,0-0.2c0.6,0,1.4,0.2,2.8,1.1c3,1.8,3.5,2.9,6,7
	c1,1.5,1.4,2.7,1.8,3.5c0.5,0.9,0.6,1.7,0,2.7c-1.6,2.7,2.7,7.4,1.6,8.6c-1,1.1-2,0.2-3,0.1c-1.2,0,0.5,2.1,1.4,2.3
	c0.7,0.1,1.9-0.7,3.6-1.7c2.8-1.9,2.2-4.5,2.2-4.6l-0.1-0.3l0.3,0.1c0,0,3.2,0.9,6.3-0.3c0.4-0.2,0.7-0.4,0.9-0.6
	c1.4-0.9,1.7-3.6,0.8-3.9c-0.9-0.3,0.2,2.2-1.8,2c-1.6-0.1-2.3-0.9-2.6-1.3c0-0.1-0.8-0.8-0.9-0.9C23.4,23.7,22,23.3,21,23
	c-0.6-0.2-1.1-0.6-1.4-1.1l-0.4-0.7c-1.3-2.1-2.8-4.1-4.5-5.9c-0.5-0.5-1-1.1-1.6-1.6C10.7,11.4,6.5,9,3.6,9.8l0,0
	C2.6,9.9,1.8,10.8,1.7,11.8z"/>
<path class="st0" d="M21.4,34.6C21.4,34.5,21.5,34.5,21.4,34.6c1.8-1,4.4-2.6,6.3-3.8c-2.3,0.5-4.4,0.2-5.1,0
	C22.7,31.4,22.7,33,21.4,34.6z"/>
</svg>
